<svg xmlns="http://www.w3.org/2000/svg" width="1024" height="1024" viewBox="0 0 1024 1024">
<g>
<path d="M 389.48 879.88 C384.94,881.14 301.57,881.29 296.36,880.05 C291.27,878.83 286.93,875.04 284.39,869.60 C282.09,864.66 282.02,863.71 282.01,839.36 L 282.00 814.23 L 261.25 813.79 C241.02,813.37 240.26,813.28 231.00,810.12 C205.22,801.33 187.28,782.54 179.80,756.50 L 177.50 748.50 L 177.50 347.50 L 180.30 338.55 C189.43,309.41 209.57,289.01 238.00,280.10 C249.69,276.43 256.42,276.02 304.21,276.01 L 350.92 276.00 L 351.21 222.75 L 351.50 169.50 L 354.17 163.80 C357.24,157.26 363.98,150.07 369.87,147.06 C370.98,146.50 371.92,146.00 372.89,145.55 C380.58,142.00 389.91,142.00 499.21,142.00 C502.73,142.00 506.35,142.00 510.07,142.00 C585.54,142.00 636.72,142.38 639.79,142.96 C654.24,145.70 665.16,155.65 669.39,169.93 C670.78,174.61 671.00,182.35 671.00,225.62 L 671.00 275.87 L 722.75 276.23 L 774.50 276.58 L 783.29 279.30 C814.52,288.95 835.19,309.26 844.74,339.71 L 847.50 348.50 L 847.78 546.00 C847.80,560.17 847.82,573.37 847.84,585.66 C848.08,739.32 848.10,751.30 843.62,761.26 C842.88,762.89 842.02,764.48 841.02,766.63 C832.30,785.39 816.36,800.51 797.22,808.17 C785.34,812.93 778.43,813.96 758.25,813.98 L 740.00 814.00 L 740.00 840.03 C740.00,859.63 739.67,866.86 738.65,869.30 C736.82,873.68 730.90,878.68 725.98,880.01 C723.26,880.74 707.55,881.00 678.21,880.80 C630.34,880.47 631.80,880.65 625.80,874.34 C620.39,868.64 620.00,866.27 620.00,839.03 L 620.00 814.00 L 403.00 814.00 L 402.99 838.75 C402.99,853.72 402.55,865.07 401.88,867.48 C400.47,872.57 394.57,878.47 389.48,879.88 ZM 503.75 718.63 C509.53,720.79 519.86,719.86 525.18,716.71 C527.55,715.30 562.84,680.70 603.59,639.82 L 677.69 565.50 L 682.23 556.50 C691.76,537.63 694.47,524.89 693.75,502.40 C693.11,482.44 689.63,469.93 680.15,453.50 C668.65,433.58 647.94,416.84 625.27,409.14 C585.04,395.46 541.00,407.95 515.30,440.32 L 512.27 444.13 L 508.55 439.07 C500.44,428.02 485.98,417.43 470.27,411.04 C425.62,392.88 374.45,408.96 347.35,449.68 C336.06,466.65 331.05,482.35 330.26,503.30 C329.66,519.15 330.80,528.17 335.09,541.50 C341.52,561.46 338.12,557.55 419.80,638.85 C460.34,679.19 494.96,713.33 496.75,714.71 C498.53,716.10 501.68,717.86 503.75,718.63 ZM 401.00 193.00 L 401.00 276.00 L 620.00 276.00 L 620.00 193.00 Z" fill="rgb(108,58,237)"/>
<path d="M 523.00 716.29 C523.00,717.15 520.23,717.89 519.55,717.21 C519.19,716.86 517.46,716.52 515.70,716.46 C513.94,716.40 510.12,716.27 507.21,716.17 C502.36,716.01 502.01,715.85 502.94,714.10 C503.70,712.70 503.58,711.89 502.48,710.98 C501.67,710.31 501.00,709.36 501.00,708.88 C501.00,707.18 503.74,708.03 507.84,711.00 C510.12,712.65 512.40,714.00 512.91,714.00 C514.57,714.00 519.99,710.53 519.99,709.47 C520.00,707.71 525.50,705.06 527.86,705.67 C530.96,706.48 534.00,703.45 534.00,699.54 C534.00,695.42 535.58,694.00 540.13,694.00 C542.90,694.00 544.02,693.52 544.46,692.13 C544.79,691.10 546.39,689.23 548.03,687.98 C549.75,686.66 551.00,684.77 551.00,683.47 C551.00,680.63 553.41,678.61 556.00,679.29 C557.47,679.67 558.16,679.23 558.56,677.63 C558.86,676.42 561.04,674.12 563.40,672.51 C566.61,670.32 567.57,669.08 567.20,667.64 C566.59,665.33 569.35,663.00 572.69,663.00 C573.96,663.00 575.00,662.53 575.00,661.96 C575.00,661.39 576.80,659.21 579.00,657.11 C581.20,655.02 583.00,652.63 583.00,651.81 C583.00,650.08 586.32,646.78 587.63,647.21 C589.17,647.72 599.88,636.85 599.31,635.37 C598.57,633.43 600.53,631.35 603.77,630.64 C605.37,630.28 607.34,628.68 608.52,626.77 C609.63,624.97 611.09,623.44 611.77,623.38 C612.45,623.31 613.45,623.19 614.00,623.12 C614.55,623.06 615.00,621.71 615.00,620.12 C615.00,616.80 617.19,614.56 619.77,615.23 C621.56,615.70 624.00,613.92 624.00,612.15 C624.00,611.63 625.58,609.82 627.50,608.13 C629.42,606.44 631.00,604.24 631.00,603.23 C631.00,600.70 632.94,599.00 635.83,599.00 C638.00,599.00 643.00,594.69 643.00,592.82 C643.00,592.44 643.90,591.85 645.00,591.50 C646.37,591.06 647.00,589.99 647.00,588.06 C647.00,586.51 647.56,584.80 648.25,584.26 C649.37,583.37 653.61,582.13 656.65,581.79 C657.29,581.72 657.61,581.15 657.37,580.52 C657.13,579.89 658.16,578.05 659.68,576.43 C661.19,574.82 662.52,572.90 662.64,572.17 C663.12,569.10 664.11,567.98 667.60,566.52 C671.12,565.05 671.21,564.89 669.60,563.11 C668.07,561.42 668.06,561.09 669.45,559.69 C670.30,558.84 671.00,557.71 671.00,557.19 C671.00,556.66 671.94,555.99 673.08,555.69 C674.64,555.28 675.01,555.52 674.58,556.65 C674.26,557.48 674.00,558.83 674.00,559.64 C674.00,560.45 673.62,560.89 673.17,560.60 C672.71,560.32 672.33,560.72 672.33,561.50 C672.33,562.28 672.71,562.68 673.17,562.40 C673.62,562.11 674.00,562.34 674.00,562.91 C674.00,563.47 674.79,563.65 675.75,563.31 C677.10,562.82 676.96,563.27 675.14,565.27 C673.85,566.69 672.27,567.69 671.64,567.49 C671.01,567.29 669.01,569.16 667.19,571.66 C665.37,574.15 664.47,575.86 665.19,575.45 C665.91,575.05 664.05,577.25 661.05,580.34 C658.05,583.44 655.32,585.52 654.99,584.98 C654.30,583.86 648.00,590.54 648.00,592.39 C648.00,594.05 639.54,602.20 638.69,601.36 C638.31,600.98 638.00,601.22 638.00,601.89 C638.00,602.57 637.64,602.89 637.19,602.62 C636.36,602.10 632.34,606.83 632.71,607.90 C633.04,608.85 625.76,615.97 624.96,615.47 C624.11,614.95 619.00,619.86 619.00,621.20 C619.00,621.70 618.47,621.79 617.83,621.39 C617.04,620.90 616.87,621.22 617.32,622.39 C617.71,623.41 617.58,623.86 616.99,623.49 C616.44,623.16 616.00,623.49 616.00,624.24 C616.00,626.05 608.57,633.24 607.65,632.32 C607.25,631.92 605.84,632.70 604.51,634.05 C603.18,635.40 601.35,637.12 600.45,637.88 C599.35,638.80 599.17,639.49 599.89,639.93 C600.55,640.34 599.22,642.33 596.49,645.01 C593.99,647.47 592.00,648.78 592.00,647.99 C592.00,646.19 584.92,653.36 584.61,655.47 C584.33,657.36 578.02,664.00 576.51,664.00 C574.93,664.00 566.62,671.95 567.39,672.73 C568.43,673.76 560.89,680.90 559.38,680.32 C558.57,680.01 557.63,680.75 557.07,682.15 C556.55,683.44 556.10,684.09 556.06,683.60 C556.03,683.10 555.11,683.72 554.02,684.98 C552.93,686.23 552.24,687.58 552.48,687.96 C552.98,688.77 544.47,697.40 543.70,696.86 C542.88,696.28 535.90,703.03 536.43,703.89 C536.70,704.32 535.21,706.35 533.12,708.39 C529.68,711.74 529.07,711.99 526.78,710.95 C523.72,709.55 519.51,711.29 520.39,713.58 C520.69,714.36 520.47,715.00 519.91,715.00 C519.34,715.00 519.15,715.43 519.47,715.96 C519.80,716.48 520.72,716.66 521.53,716.35 C522.34,716.04 523.00,716.01 523.00,716.29 ZM 447.40 661.58 C447.63,662.18 447.20,662.67 446.45,662.67 C445.70,662.67 445.32,662.29 445.60,661.83 C445.89,661.38 445.64,661.00 445.07,661.00 C443.73,661.00 439.00,656.92 439.00,655.77 C439.00,654.58 432.52,648.00 431.35,648.00 C430.19,648.00 423.14,640.89 422.92,639.50 C422.63,637.70 420.34,635.00 419.66,635.67 C419.30,636.04 419.00,635.81 419.00,635.17 C419.00,634.53 418.42,634.00 417.71,634.00 C416.41,634.00 406.09,624.10 406.98,623.71 C407.25,623.60 406.68,622.39 405.73,621.03 C404.78,619.67 403.99,618.99 403.97,619.53 C403.95,620.06 403.48,619.71 402.92,618.75 C402.36,617.79 401.34,617.00 400.66,617.00 C399.98,617.00 397.19,614.69 394.46,611.86 C391.73,609.03 390.13,607.07 390.90,607.51 C391.94,608.10 392.08,607.94 391.45,606.90 C390.37,605.13 385.74,601.44 384.93,601.70 C384.59,601.81 382.35,599.90 379.95,597.45 C376.61,594.04 375.87,592.73 376.77,591.83 C378.46,590.14 382.71,592.28 384.21,595.56 C385.14,597.60 385.11,598.31 384.09,598.95 C383.17,599.51 383.11,599.95 383.89,600.43 C384.50,600.81 385.00,600.61 385.00,600.00 C385.00,599.33 386.33,599.00 388.25,599.19 C390.77,599.43 391.83,600.21 393.00,602.69 C394.32,605.51 398.21,610.00 399.32,610.00 C399.54,610.00 399.51,608.87 399.24,607.49 C398.85,605.45 399.08,605.09 400.44,605.61 C401.49,606.02 401.88,606.86 401.48,607.88 C400.74,609.78 400.73,609.89 400.88,612.53 C400.96,613.96 401.77,614.63 403.59,614.78 C407.16,615.07 407.53,615.40 410.00,620.51 C411.20,622.98 412.58,625.00 413.06,625.00 C413.55,625.00 414.59,626.25 415.38,627.77 C416.35,629.65 417.71,630.62 419.56,630.78 C423.13,631.07 425.00,632.70 425.00,635.50 C425.00,636.91 426.32,638.77 428.50,640.43 C430.42,641.90 432.00,643.68 432.00,644.39 C432.00,645.10 433.83,646.28 436.06,647.02 C439.12,648.03 440.47,649.18 441.51,651.68 C443.09,655.46 443.75,655.71 445.58,653.25 C446.81,651.59 446.97,651.60 448.69,653.38 C450.44,655.20 450.43,655.25 448.40,654.76 C446.55,654.33 446.34,654.65 446.65,657.38 C446.84,659.10 447.18,660.99 447.40,661.58 ZM 502.37 441.95 C499.83,443.08 496.92,444.00 495.90,444.00 C493.40,444.00 494.45,441.57 497.56,440.16 C498.90,439.54 500.00,438.36 500.00,437.52 C500.00,436.68 500.48,436.00 501.06,436.00 C501.64,436.00 501.82,435.52 501.46,434.93 C501.09,434.34 500.18,434.10 499.43,434.39 C498.67,434.68 496.69,433.77 495.03,432.37 C493.36,430.97 492.00,430.16 492.00,430.57 C492.00,430.98 491.10,430.50 490.00,429.50 C488.90,428.50 488.00,427.12 488.00,426.43 C488.00,425.73 487.44,424.98 486.75,424.75 C485.03,424.17 482.00,425.04 482.00,426.12 C482.00,426.60 481.33,427.00 480.50,427.00 C478.93,427.00 478.50,424.29 479.77,422.40 C480.17,421.79 481.50,420.77 482.73,420.13 C484.56,419.16 485.27,419.27 486.74,420.73 C487.72,421.70 490.76,424.30 493.49,426.50 C498.78,430.77 507.00,438.63 507.00,439.43 C507.00,439.69 504.92,440.83 502.37,441.95 ZM 692.72 507.09 C692.37,515.77 690.45,527.59 690.10,523.19 C690.05,522.47 689.53,522.17 688.97,522.52 C688.29,522.94 688.17,522.18 688.62,520.33 C689.38,517.20 689.60,511.58 689.10,508.50 C688.92,507.40 688.82,503.31 688.88,499.42 C688.98,493.79 689.31,492.33 690.52,492.33 C692.73,492.33 693.19,495.39 692.72,507.09 ZM 682.66 480.45 C681.42,483.68 679.00,481.96 679.00,477.85 C679.00,475.68 678.43,474.89 676.50,474.41 C673.78,473.73 673.73,473.61 674.65,470.17 C675.10,468.48 675.80,467.98 677.20,468.34 C679.24,468.88 681.18,465.65 680.26,463.24 C679.18,460.41 682.64,463.28 684.75,466.97 C687.59,471.93 687.57,472.34 684.44,471.74 C682.93,471.45 681.28,471.87 680.39,472.75 C679.06,474.09 679.13,474.51 681.07,476.58 C682.31,477.90 683.00,479.57 682.66,480.45 ZM 659.86 433.67 C658.29,435.56 656.24,435.32 655.06,433.12 C654.51,432.08 653.03,430.97 651.78,430.64 C650.52,430.32 648.75,428.73 647.84,427.11 C646.90,425.43 645.18,424.02 643.84,423.83 C640.80,423.40 641.32,421.56 644.55,421.31 C645.92,421.20 646.78,421.54 646.46,422.06 C646.14,422.58 646.60,423.00 647.48,423.00 C649.20,423.00 653.83,425.97 658.23,429.90 C660.32,431.77 660.70,432.65 659.86,433.67 ZM 349.49 469.75 C350.38,477.65 348.94,477.89 346.45,470.25 C345.43,467.09 344.01,463.80 343.31,462.95 C342.27,461.66 342.41,460.69 344.14,457.45 C346.81,452.41 346.94,452.29 347.95,453.92 C348.42,454.69 348.35,456.55 347.79,458.16 C347.13,460.07 347.12,461.46 347.78,462.27 C348.33,462.95 349.10,466.31 349.49,469.75 ZM 361.01 443.91 C360.48,446.20 357.00,447.89 357.00,445.85 C357.00,445.32 356.55,445.16 356.00,445.50 C354.59,446.37 354.76,444.68 356.25,442.98 C356.94,442.19 356.49,442.40 355.25,443.43 C354.01,444.46 353.00,444.86 353.00,444.31 C353.00,442.77 356.56,439.90 357.41,440.75 C357.83,441.16 358.02,440.89 357.83,440.13 C357.65,439.38 359.08,437.87 361.00,436.77 C362.92,435.67 364.79,434.32 365.14,433.76 C365.49,433.20 366.25,433.04 366.83,433.39 C368.46,434.40 366.32,439.38 363.76,440.52 C362.56,441.06 361.32,442.58 361.01,443.91 ZM 368.39 583.17 C367.49,584.63 366.49,584.09 362.50,580.00 C360.20,577.64 359.19,576.00 360.04,576.00 C360.84,576.00 359.58,574.20 357.24,572.00 C354.91,569.80 353.00,567.79 353.00,567.52 C353.00,567.26 354.40,567.20 356.12,567.40 C359.40,567.78 361.29,569.65 360.52,571.76 C360.27,572.45 361.80,574.16 363.93,575.57 C367.58,577.99 369.54,581.32 368.39,583.17 ZM 441.33 410.06 C433.69,410.60 425.60,410.32 423.08,409.43 C420.84,408.64 425.68,405.71 429.67,405.45 C433.79,405.17 441.26,407.27 441.78,408.85 C441.99,409.48 441.79,410.03 441.33,410.06 ZM 334.10 511.75 C334.02,515.71 333.63,517.00 332.50,517.00 C331.27,517.00 331.00,515.29 331.00,507.62 C331.00,499.23 331.20,498.18 332.91,497.73 C335.12,497.15 336.03,500.00 334.90,504.00 C334.52,505.38 334.15,508.86 334.10,511.75 ZM 384.48 429.38 C382.06,431.80 381.84,431.67 381.62,427.75 C381.44,424.43 377.89,424.39 373.89,427.66 C371.43,429.67 371.02,429.82 372.40,428.21 C374.64,425.61 373.56,425.28 370.58,427.65 C369.44,428.56 370.18,427.66 372.24,425.65 C376.05,421.93 379.88,420.98 383.00,423.00 C383.83,423.53 384.09,423.98 383.60,423.98 C383.10,423.99 383.46,424.85 384.39,425.88 C385.96,427.61 385.97,427.89 384.48,429.38 ZM 338.00 477.88 C338.00,478.91 337.33,480.32 336.50,481.00 C335.59,481.75 335.00,481.83 335.00,481.21 C335.00,480.63 335.56,479.94 336.25,479.66 C337.23,479.27 337.23,479.14 336.22,479.08 C335.21,479.02 335.24,478.43 336.33,476.25 C337.10,474.74 338.00,472.31 338.35,470.86 C339.00,468.14 341.94,466.11 342.08,468.28 C342.12,468.95 342.31,470.34 342.50,471.36 C343.03,474.17 342.00,476.00 339.89,476.00 C338.71,476.00 338.00,476.70 338.00,477.88 ZM 348.84 555.58 C348.36,558.04 345.00,558.34 345.00,555.91 C345.00,554.86 344.37,554.00 343.61,554.00 C342.84,554.00 341.96,553.34 341.65,552.53 C341.02,550.88 343.44,548.00 345.45,548.00 C347.02,548.00 349.31,553.14 348.84,555.58 ZM 631.50 416.23 C630.11,417.25 628.58,417.18 627.43,416.03 C626.90,415.50 625.00,414.96 623.20,414.82 C620.89,414.64 620.02,414.12 620.23,413.03 C620.57,411.20 625.78,410.38 627.32,411.92 C627.91,412.51 629.43,413.00 630.70,413.00 C632.99,413.00 633.44,414.81 631.50,416.23 ZM 676.50 457.00 C675.09,459.28 673.36,457.66 671.18,452.03 C669.55,447.84 669.14,445.57 669.81,444.38 C670.65,442.88 670.94,442.98 672.46,445.30 C674.32,448.14 675.23,453.00 673.89,453.00 C673.44,453.00 673.32,453.67 673.64,454.50 C673.95,455.33 674.87,456.00 675.67,456.00 C676.46,456.00 676.84,456.45 676.50,457.00 ZM 665.85 447.68 C664.25,449.61 663.10,449.31 661.87,446.62 C661.15,445.04 660.19,444.40 659.00,444.71 C657.46,445.11 657.31,444.72 657.90,441.84 C658.74,437.74 661.37,437.35 661.82,441.25 C661.99,442.76 662.69,444.00 663.37,444.00 C665.58,444.00 667.07,446.20 665.85,447.68 ZM 471.75 415.26 C471.22,416.83 469.31,417.30 468.53,416.05 C468.17,415.47 466.11,415.00 463.94,415.00 C459.37,415.00 458.36,412.45 462.51,411.41 C465.41,410.68 472.31,413.56 471.75,415.26 ZM 472.54 680.05 C473.45,681.05 474.01,683.04 473.82,684.61 L 473.50 687.40 L 469.71 684.06 C467.63,682.23 466.09,680.23 466.30,679.61 C466.89,677.84 470.79,678.11 472.54,680.05 ZM 377.00 588.09 C377.00,589.57 376.35,591.04 375.55,591.34 C374.53,591.73 374.29,591.42 374.72,590.29 C375.09,589.32 374.93,588.93 374.32,589.30 C373.76,589.65 372.71,588.82 371.98,587.47 C371.26,586.11 370.29,585.00 369.83,585.00 C369.37,585.00 369.00,584.55 369.00,584.00 C369.00,582.59 374.35,582.75 375.80,584.20 C376.46,584.86 377.00,586.61 377.00,588.09 ZM 489.55 699.25 C490.44,702.93 488.24,702.91 484.69,699.20 C481.57,695.94 481.24,694.00 483.81,694.00 C486.47,694.00 488.80,696.13 489.55,699.25 ZM 565.91 659.39 C563.31,662.70 560.35,664.37 559.51,663.01 C558.72,661.73 563.81,655.00 565.56,655.00 C567.89,655.00 568.03,656.69 565.91,659.39 ZM 686.37 537.82 C685.80,538.19 684.87,539.34 684.31,540.36 C683.38,542.06 683.24,542.08 682.65,540.53 C681.75,538.18 681.81,538.00 683.43,538.00 C684.24,538.00 685.01,536.84 685.18,535.35 C685.49,532.79 688.32,529.99 689.46,531.13 C690.23,531.90 688.91,538.06 688.08,537.55 C687.71,537.32 686.94,537.44 686.37,537.82 ZM 524.38 443.94 C523.90,444.38 522.21,445.05 520.63,445.42 C517.89,446.07 517.79,445.97 518.45,443.30 C519.34,439.70 520.47,438.58 522.46,439.34 C524.42,440.10 525.57,442.85 524.38,443.94 ZM 533.50 430.00 C533.84,430.55 533.88,431.00 533.59,431.00 C533.31,431.00 532.59,430.11 532.01,429.02 C531.17,427.45 531.37,426.63 532.98,425.02 C535.07,422.93 539.00,422.25 539.00,423.99 C539.00,425.54 535.70,429.00 534.22,429.00 C533.48,429.00 533.16,429.45 533.50,430.00 ZM 457.00 666.62 C457.00,669.54 455.10,669.67 452.19,666.96 C449.43,664.39 449.43,663.38 452.20,662.66 C455.00,661.93 457.00,663.58 457.00,666.62 ZM 596.83 627.87 C593.65,630.85 591.00,631.91 591.00,630.20 C591.00,629.75 592.58,627.86 594.50,626.00 C597.00,623.58 598.31,622.91 599.08,623.68 C599.85,624.45 599.20,625.65 596.83,627.87 ZM 398.00 594.50 C400.42,597.00 401.09,598.31 400.32,599.08 C399.55,599.85 398.35,599.20 396.13,596.83 C393.15,593.65 392.09,591.00 393.80,591.00 C394.25,591.00 396.14,592.58 398.00,594.50 ZM 385.00 582.30 C385.00,583.92 382.19,582.80 379.69,580.20 C377.07,577.47 376.18,575.00 377.80,575.00 C378.78,575.00 385.00,581.31 385.00,582.30 ZM 369.00 566.30 C369.00,567.92 366.19,566.80 363.69,564.20 C361.07,561.47 360.18,559.00 361.80,559.00 C362.78,559.00 369.00,565.31 369.00,566.30 ZM 644.20 580.31 C641.47,582.93 639.00,583.82 639.00,582.20 C639.00,581.22 645.31,575.00 646.30,575.00 C647.92,575.00 646.80,577.81 644.20,580.31 ZM 628.20 596.31 C625.47,598.93 623.00,599.82 623.00,598.20 C623.00,597.22 629.31,591.00 630.30,591.00 C631.92,591.00 630.80,593.81 628.20,596.31 ZM 612.20 612.31 C609.47,614.93 607.00,615.82 607.00,614.20 C607.00,613.22 613.31,607.00 614.30,607.00 C615.92,607.00 614.80,609.81 612.20,612.31 ZM 580.20 644.31 C577.47,646.93 575.00,647.82 575.00,646.20 C575.00,645.22 581.31,639.00 582.30,639.00 C583.92,639.00 582.80,641.81 580.20,644.31 ZM 507.43 447.32 C506.60,449.48 503.13,449.50 502.31,447.36 C501.38,444.94 504.93,442.50 506.74,444.31 C507.47,445.05 507.78,446.40 507.43,447.32 ZM 613.79 410.00 C613.12,410.00 611.61,411.21 610.43,412.69 C608.30,415.36 608.27,415.37 607.16,413.29 C606.24,411.58 606.35,411.07 607.77,410.50 C611.95,408.79 615.00,408.19 615.00,409.07 C615.00,409.58 614.45,410.00 613.79,410.00 ZM 598.00 409.01 C596.21,409.53 589.28,409.78 588.25,409.35 C585.70,408.29 587.12,407.00 590.75,407.07 C593.99,407.13 599.43,408.58 598.00,409.01 ZM 516.32 707.60 C516.03,708.37 514.71,709.00 513.39,709.00 C511.67,709.00 511.00,708.44 511.00,707.00 C511.00,705.57 511.67,705.00 513.33,705.00 C516.18,705.00 517.03,705.75 516.32,707.60 ZM 556.06 415.42 C554.42,417.41 551.00,417.48 551.00,415.54 C551.00,413.57 554.25,411.92 555.99,412.99 C557.13,413.70 557.14,414.12 556.06,415.42 ZM 689.29 479.00 C689.56,480.02 689.42,482.35 688.99,484.18 C688.46,486.44 688.17,486.80 688.10,485.31 C688.05,484.10 687.55,482.84 687.00,482.50 C685.52,481.58 685.79,478.29 687.40,477.68 C688.22,477.36 689.00,477.91 689.29,479.00 ZM 515.00 448.00 C514.14,449.60 511.25,450.84 510.93,449.75 C509.91,446.34 510.23,445.36 512.28,445.59 C513.50,445.72 514.85,445.87 515.29,445.92 C515.72,445.96 515.59,446.90 515.00,448.00 ZM 463.41 673.85 C463.70,674.32 463.36,675.50 462.65,676.46 C461.44,678.11 461.26,678.12 459.67,676.53 C458.74,675.60 458.24,674.43 458.55,673.92 C459.27,672.76 462.71,672.71 463.41,673.85 ZM 563.81 413.26 C564.18,415.19 561.52,415.62 559.01,414.03 C557.90,413.32 557.80,412.80 558.65,411.95 C560.24,410.36 563.41,411.17 563.81,413.26 ZM 395.80 415.80 C395.14,416.46 393.76,417.00 392.73,417.00 C389.68,417.00 391.06,413.55 394.26,413.18 C397.18,412.85 397.76,413.84 395.80,415.80 ZM 405.00 415.06 C405.00,416.40 401.62,416.22 400.20,414.80 C398.41,413.01 398.74,412.07 401.00,412.50 C403.62,413.00 405.00,413.89 405.00,415.06 ZM 417.76 412.25 C417.12,414.19 412.00,414.47 412.00,412.57 C412.00,411.48 412.95,411.00 415.08,411.00 C417.10,411.00 418.02,411.43 417.76,412.25 ZM 527.97 434.46 C528.76,435.41 528.84,436.46 528.22,437.58 C527.58,438.72 527.05,438.90 526.58,438.13 C526.20,437.51 526.20,436.48 526.60,435.85 C527.04,435.13 526.87,434.96 526.15,435.40 C525.52,435.80 525.00,435.67 525.00,435.12 C525.00,433.36 526.73,432.97 527.97,434.46 ZM 682.23 553.22 C681.58,555.73 680.33,556.30 679.60,554.41 C678.61,551.83 678.90,551.12 680.85,551.26 C682.12,551.36 682.56,551.97 682.23,553.22 ZM 416.65 621.23 C418.72,623.29 418.29,623.88 415.28,623.09 C413.61,622.64 413.29,622.13 413.99,621.00 C414.81,619.69 415.14,619.72 416.65,621.23 ZM 642.39 430.58 C642.70,431.38 642.34,432.00 641.58,432.00 C640.45,432.00 639.00,430.00 639.00,428.45 C639.00,427.49 641.90,429.31 642.39,430.58 ZM 673.00 545.50 C673.00,547.05 671.82,547.49 670.69,546.36 C669.89,545.56 670.80,544.00 672.06,544.00 C672.58,544.00 673.00,544.67 673.00,545.50 ZM 673.36 464.50 C673.71,465.41 673.36,466.00 672.47,466.00 C671.66,466.00 671.00,465.33 671.00,464.50 C671.00,463.67 671.40,463.00 671.89,463.00 C672.38,463.00 673.05,463.67 673.36,464.50 ZM 353.00 460.53 C353.00,461.34 352.33,462.00 351.50,462.00 C350.67,462.00 350.00,461.60 350.00,461.11 C350.00,460.62 350.67,459.95 351.50,459.64 C352.41,459.29 353.00,459.64 353.00,460.53 ZM 497.05 703.18 C498.14,703.55 497.95,703.95 496.31,704.84 C494.65,705.72 493.95,705.72 493.41,704.85 C492.98,704.16 493.13,703.96 493.76,704.35 C494.35,704.72 495.00,704.49 495.21,703.86 C495.43,703.22 496.25,702.92 497.05,703.18 ZM 377.00 432.11 C377.00,433.54 375.26,433.13 374.66,431.55 C374.29,430.58 374.58,430.29 375.55,430.66 C376.35,430.96 377.00,431.62 377.00,432.11 ZM 546.50 422.00 C546.84,422.55 546.42,423.00 545.56,423.00 C544.70,423.00 544.00,422.55 544.00,422.00 C544.00,421.45 544.42,421.00 544.94,421.00 C545.46,421.00 546.16,421.45 546.50,422.00 ZM 365.00 448.00 C365.00,448.55 364.55,449.00 364.00,449.00 C363.45,449.00 363.00,448.55 363.00,448.00 C363.00,447.45 363.45,447.00 364.00,447.00 C364.55,447.00 365.00,447.45 365.00,448.00 ZM 343.19 456.38 C340.84,460.54 338.75,464.91 336.93,469.48 C335.12,474.03 333.66,478.83 332.55,483.80 C334.59,474.12 338.04,465.31 343.19,456.38 ZM 330.29 517.27 C330.78,523.38 331.76,529.42 333.23,535.23 C331.57,529.09 330.65,523.57 330.29,517.27 ZM 355.59 574.19 C366.82,586.17 385.92,605.11 419.81,638.85 C453.37,672.26 482.89,701.41 493.05,711.23 C482.88,701.41 453.37,672.26 419.80,638.85 C386.20,605.41 367.00,586.39 355.59,574.19 ZM 335.96 544.21 C338.27,550.75 339.42,554.53 343.90,560.63 C339.27,554.38 337.93,550.41 335.96,544.21 ZM 461.65 407.98 C451.20,404.83 440.61,403.44 430.22,403.65 C440.69,403.42 451.29,404.82 461.65,407.98 Z" fill="rgb(251,115,188)"/>
<path d="M 503.75 718.63 C501.68,717.86 498.53,716.10 496.75,714.71 C496.43,714.47 495.09,713.21 492.88,711.07 C482.56,701.09 453.19,672.07 419.81,638.85 C385.92,605.11 366.82,586.17 355.59,574.19 C350.18,568.40 346.52,564.15 343.90,560.63 C339.42,554.53 338.27,550.75 335.96,544.21 C335.69,543.35 335.40,542.45 335.09,541.50 C334.39,539.31 333.77,537.23 333.23,535.23 C331.76,529.42 330.78,523.38 330.29,517.27 C330.06,513.10 330.06,508.58 330.26,503.30 C330.53,496.29 331.26,489.88 332.55,483.80 C333.66,478.83 335.12,474.03 336.93,469.48 C338.75,464.91 340.84,460.54 343.19,456.38 L 343.19 456.38 C344.47,454.16 345.86,451.93 347.35,449.68 C366.53,420.86 397.77,404.38 430.22,403.65 C440.61,403.44 451.19,404.83 461.65,407.98 L 461.65 407.98 C464.55,408.87 467.42,409.89 470.27,411.04 C485.98,417.43 500.44,428.02 508.55,439.07 L 512.27 444.13 L 515.30 440.32 C541.00,407.95 585.04,395.46 625.27,409.14 C647.94,416.84 668.65,433.58 680.15,453.50 C689.63,469.93 693.11,482.44 693.75,502.40 C694.47,524.89 691.76,537.63 682.23,556.50 L 677.69 565.50 L 603.59 639.82 C562.84,680.70 527.55,715.30 525.18,716.71 C519.86,719.86 509.53,720.79 503.75,718.63 ZM 523.00 716.29 C523.00,716.01 522.34,716.04 521.53,716.35 C520.72,716.66 519.80,716.48 519.47,715.96 C519.15,715.43 519.34,715.00 519.91,715.00 C520.47,715.00 520.69,714.36 520.39,713.58 C519.51,711.29 523.72,709.55 526.78,710.95 C529.07,711.99 529.68,711.74 533.12,708.39 C535.21,706.35 536.70,704.32 536.43,703.89 C535.90,703.03 542.88,696.28 543.70,696.86 C544.47,697.40 552.98,688.77 552.48,687.96 C552.24,687.58 552.93,686.23 554.02,684.98 C555.11,683.72 556.03,683.10 556.06,683.60 C556.10,684.09 556.55,683.44 557.07,682.15 C557.63,680.75 558.57,680.01 559.38,680.32 C560.89,680.90 568.43,673.76 567.39,672.73 C566.62,671.95 574.93,664.00 576.51,664.00 C578.02,664.00 584.33,657.36 584.61,655.47 C584.92,653.36 592.00,646.19 592.00,647.99 C592.00,648.78 593.99,647.47 596.49,645.01 C599.22,642.33 600.55,640.34 599.89,639.93 C599.17,639.49 599.35,638.80 600.45,637.88 C601.35,637.12 603.18,635.40 604.51,634.05 C605.84,632.70 607.25,631.92 607.65,632.32 C608.57,633.24 616.00,626.05 616.00,624.24 C616.00,623.49 616.44,623.16 616.99,623.49 C617.58,623.86 617.71,623.41 617.32,622.39 C616.87,621.22 617.04,620.90 617.83,621.39 C618.47,621.79 619.00,621.70 619.00,621.20 C619.00,619.86 624.11,614.95 624.96,615.47 C625.76,615.97 633.04,608.85 632.71,607.90 C632.34,606.83 636.36,602.10 637.19,602.62 C637.64,602.89 638.00,602.57 638.00,601.89 C638.00,601.22 638.31,600.98 638.69,601.36 C639.54,602.20 648.00,594.05 648.00,592.39 C648.00,590.54 654.30,583.86 654.99,584.98 C655.32,585.52 658.05,583.44 661.05,580.34 C664.05,577.25 665.91,575.05 665.19,575.45 C664.47,575.86 665.37,574.15 667.19,571.66 C669.01,569.16 671.01,567.29 671.64,567.49 C672.27,567.69 673.85,566.69 675.14,565.27 C676.96,563.27 677.10,562.82 675.75,563.31 C674.79,563.65 674.00,563.47 674.00,562.91 C674.00,562.34 673.62,562.11 673.17,562.40 C672.71,562.68 672.33,562.28 672.33,561.50 C672.33,560.72 672.71,560.32 673.17,560.60 C673.62,560.89 674.00,560.45 674.00,559.64 C674.00,558.83 674.26,557.48 674.58,556.65 C675.01,555.52 674.64,555.28 673.08,555.69 C671.94,555.99 671.00,556.66 671.00,557.19 C671.00,557.71 670.30,558.84 669.45,559.69 C668.06,561.09 668.07,561.42 669.60,563.11 C671.21,564.89 671.12,565.05 667.60,566.52 C664.11,567.98 663.12,569.10 662.64,572.17 C662.52,572.90 661.19,574.82 659.68,576.43 C658.16,578.05 657.13,579.89 657.37,580.52 C657.61,581.15 657.29,581.72 656.65,581.79 C653.61,582.13 649.37,583.37 648.25,584.26 C647.56,584.80 647.00,586.51 647.00,588.06 C647.00,589.99 646.37,591.06 645.00,591.50 C643.90,591.85 643.00,592.44 643.00,592.82 C643.00,594.69 638.00,599.00 635.83,599.00 C632.94,599.00 631.00,600.70 631.00,603.23 C631.00,604.24 629.42,606.44 627.50,608.13 C625.58,609.82 624.00,611.63 624.00,612.15 C624.00,613.92 621.56,615.70 619.77,615.23 C617.19,614.56 615.00,616.80 615.00,620.12 C615.00,621.71 614.55,623.06 614.00,623.12 C613.45,623.19 612.45,623.31 611.77,623.38 C611.09,623.44 609.63,624.97 608.52,626.77 C607.34,628.68 605.37,630.28 603.77,630.64 C600.53,631.35 598.57,633.43 599.31,635.37 C599.88,636.85 589.17,647.72 587.63,647.21 C586.32,646.78 583.00,650.08 583.00,651.81 C583.00,652.63 581.20,655.02 579.00,657.11 C576.80,659.21 575.00,661.39 575.00,661.96 C575.00,662.53 573.96,663.00 572.69,663.00 C569.35,663.00 566.59,665.33 567.20,667.64 C567.57,669.08 566.61,670.32 563.40,672.51 C561.04,674.12 558.86,676.42 558.56,677.63 C558.16,679.23 557.47,679.67 556.00,679.29 C553.41,678.61 551.00,680.63 551.00,683.47 C551.00,684.77 549.75,686.66 548.03,687.98 C546.39,689.23 544.79,691.10 544.46,692.13 C544.02,693.52 542.90,694.00 540.13,694.00 C535.58,694.00 534.00,695.42 534.00,699.54 C534.00,703.45 530.96,706.48 527.86,705.67 C525.50,705.06 520.00,707.71 519.99,709.47 C519.99,710.53 514.57,714.00 512.91,714.00 C512.40,714.00 510.12,712.65 507.84,711.00 C503.74,708.03 501.00,707.18 501.00,708.88 C501.00,709.36 501.67,710.31 502.48,710.98 C503.58,711.89 503.70,712.70 502.94,714.10 C502.01,715.85 502.36,716.01 507.21,716.17 C510.12,716.27 513.94,716.40 515.70,716.46 C517.46,716.52 519.19,716.86 519.55,717.21 C520.23,717.89 523.00,717.15 523.00,716.29 ZM 447.40 661.58 C447.18,660.99 446.84,659.10 446.65,657.38 C446.34,654.65 446.55,654.33 448.40,654.76 C450.43,655.25 450.44,655.20 448.69,653.38 C446.97,651.60 446.81,651.59 445.58,653.25 C443.75,655.71 443.09,655.46 441.51,651.68 C440.47,649.18 439.12,648.03 436.06,647.02 C433.83,646.28 432.00,645.10 432.00,644.39 C432.00,643.68 430.42,641.90 428.50,640.43 C426.32,638.77 425.00,636.91 425.00,635.50 C425.00,632.70 423.13,631.07 419.56,630.78 C417.71,630.62 416.35,629.65 415.38,627.77 C414.59,626.25 413.55,625.00 413.06,625.00 C412.58,625.00 411.20,622.98 410.00,620.51 C407.53,615.40 407.16,615.07 403.59,614.78 C401.77,614.63 400.96,613.96 400.88,612.53 C400.73,609.89 400.74,609.78 401.48,607.88 C401.88,606.86 401.49,606.02 400.44,605.61 C399.08,605.09 398.85,605.45 399.24,607.49 C399.51,608.87 399.54,610.00 399.32,610.00 C398.21,610.00 394.32,605.51 393.00,602.69 C391.83,600.21 390.77,599.43 388.25,599.19 C386.33,599.00 385.00,599.33 385.00,600.00 C385.00,600.61 384.50,600.81 383.89,600.43 C383.11,599.95 383.17,599.51 384.09,598.95 C385.11,598.31 385.14,597.60 384.21,595.56 C382.71,592.28 378.46,590.14 376.77,591.83 C375.87,592.73 376.61,594.04 379.95,597.45 C382.35,599.90 384.59,601.81 384.93,601.70 C385.74,601.44 390.37,605.13 391.45,606.90 C392.08,607.94 391.94,608.10 390.90,607.51 C390.13,607.07 391.73,609.03 394.46,611.86 C397.19,614.69 399.98,617.00 400.66,617.00 C401.34,617.00 402.36,617.79 402.92,618.75 C403.48,619.71 403.95,620.06 403.97,619.53 C403.99,618.99 404.78,619.67 405.73,621.03 C406.68,622.39 407.25,623.60 406.98,623.71 C406.09,624.10 416.41,634.00 417.71,634.00 C418.42,634.00 419.00,634.53 419.00,635.17 C419.00,635.81 419.30,636.04 419.66,635.67 C420.34,635.00 422.63,637.70 422.92,639.50 C423.14,640.89 430.19,648.00 431.35,648.00 C432.52,648.00 439.00,654.58 439.00,655.77 C439.00,656.92 443.73,661.00 445.07,661.00 C445.64,661.00 445.89,661.38 445.60,661.83 C445.32,662.29 445.70,662.67 446.45,662.67 C447.20,662.67 447.63,662.18 447.40,661.58 ZM 502.37 441.95 C504.92,440.83 507.00,439.69 507.00,439.43 C507.00,438.63 498.78,430.77 493.49,426.50 C490.76,424.30 487.72,421.70 486.74,420.73 C485.27,419.27 484.56,419.16 482.73,420.13 C481.50,420.77 480.17,421.79 479.77,422.40 C478.50,424.29 478.93,427.00 480.50,427.00 C481.33,427.00 482.00,426.60 482.00,426.12 C482.00,425.04 485.03,424.17 486.75,424.75 C487.44,424.98 488.00,425.73 488.00,426.43 C488.00,427.12 488.90,428.50 490.00,429.50 C491.10,430.50 492.00,430.98 492.00,430.57 C492.00,430.16 493.36,430.97 495.03,432.37 C496.69,433.77 498.67,434.68 499.43,434.39 C500.18,434.10 501.09,434.34 501.46,434.93 C501.82,435.52 501.64,436.00 501.06,436.00 C500.48,436.00 500.00,436.68 500.00,437.52 C500.00,438.36 498.90,439.54 497.56,440.16 C494.45,441.57 493.40,444.00 495.90,444.00 C496.92,444.00 499.83,443.08 502.37,441.95 ZM 692.72 507.09 C693.19,495.39 692.73,492.33 690.52,492.33 C689.31,492.33 688.98,493.79 688.88,499.42 C688.82,503.31 688.92,507.40 689.10,508.50 C689.60,511.58 689.38,517.20 688.62,520.33 C688.17,522.18 688.29,522.94 688.97,522.52 C689.53,522.17 690.05,522.47 690.10,523.19 C690.45,527.59 692.37,515.77 692.72,507.09 ZM 682.66 480.45 C683.00,479.57 682.31,477.90 681.07,476.58 C679.13,474.51 679.06,474.09 680.39,472.75 C681.28,471.87 682.93,471.45 684.44,471.74 C687.57,472.34 687.59,471.93 684.75,466.97 C682.64,463.28 679.18,460.41 680.26,463.24 C681.18,465.65 679.24,468.88 677.20,468.34 C675.80,467.98 675.10,468.48 674.65,470.17 C673.73,473.61 673.78,473.73 676.50,474.41 C678.43,474.89 679.00,475.68 679.00,477.85 C679.00,481.96 681.42,483.68 682.66,480.45 ZM 659.86 433.67 C660.70,432.65 660.32,431.77 658.23,429.90 C653.83,425.97 649.20,423.00 647.48,423.00 C646.60,423.00 646.14,422.58 646.46,422.06 C646.78,421.54 645.92,421.20 644.55,421.31 C641.32,421.56 640.80,423.40 643.84,423.83 C645.18,424.02 646.90,425.43 647.84,427.11 C648.75,428.73 650.52,430.32 651.78,430.64 C653.03,430.97 654.51,432.08 655.06,433.12 C656.24,435.32 658.29,435.56 659.86,433.67 ZM 349.49 469.75 C349.10,466.31 348.33,462.95 347.78,462.27 C347.12,461.46 347.13,460.07 347.79,458.16 C348.35,456.55 348.42,454.69 347.95,453.92 C346.94,452.29 346.81,452.41 344.14,457.45 C342.41,460.69 342.27,461.66 343.31,462.95 C344.01,463.80 345.43,467.09 346.45,470.25 C348.94,477.89 350.38,477.65 349.49,469.75 ZM 361.01 443.91 C361.32,442.58 362.56,441.06 363.76,440.52 C366.32,439.38 368.46,434.40 366.83,433.39 C366.25,433.04 365.49,433.20 365.14,433.76 C364.79,434.32 362.92,435.67 361.00,436.77 C359.08,437.87 357.65,439.38 357.83,440.13 C358.02,440.89 357.83,441.16 357.41,440.75 C356.56,439.90 353.00,442.77 353.00,444.31 C353.00,444.86 354.01,444.46 355.25,443.43 C356.49,442.40 356.94,442.19 356.25,442.98 C354.76,444.68 354.59,446.37 356.00,445.50 C356.55,445.16 357.00,445.32 357.00,445.85 C357.00,447.89 360.48,446.20 361.01,443.91 ZM 368.39 583.17 C369.54,581.32 367.58,577.99 363.93,575.57 C361.80,574.16 360.27,572.45 360.52,571.76 C361.29,569.65 359.40,567.78 356.12,567.40 C354.40,567.20 353.00,567.26 353.00,567.52 C353.00,567.79 354.91,569.80 357.24,572.00 C359.58,574.20 360.84,576.00 360.04,576.00 C359.19,576.00 360.20,577.64 362.50,580.00 C366.49,584.09 367.49,584.63 368.39,583.17 ZM 441.33 410.06 C441.79,410.03 441.99,409.48 441.78,408.85 C441.26,407.27 433.79,405.17 429.67,405.45 C425.68,405.71 420.84,408.64 423.08,409.43 C425.60,410.32 433.69,410.60 441.33,410.06 ZM 334.10 511.75 C334.15,508.86 334.52,505.38 334.90,504.00 C336.03,500.00 335.12,497.15 332.91,497.73 C331.20,498.18 331.00,499.23 331.00,507.62 C331.00,515.29 331.27,517.00 332.50,517.00 C333.63,517.00 334.02,515.71 334.10,511.75 ZM 384.48 429.38 C385.97,427.89 385.96,427.61 384.39,425.88 C383.46,424.85 383.10,423.99 383.60,423.98 C384.09,423.98 383.83,423.53 383.00,423.00 C379.88,420.98 376.05,421.93 372.24,425.65 C370.18,427.66 369.44,428.56 370.58,427.65 C373.56,425.28 374.64,425.61 372.40,428.21 C371.02,429.82 371.43,429.67 373.89,427.66 C377.89,424.39 381.44,424.43 381.62,427.75 C381.84,431.67 382.06,431.80 384.48,429.38 ZM 338.00 477.88 C338.00,476.70 338.71,476.00 339.89,476.00 C342.00,476.00 343.03,474.17 342.50,471.36 C342.31,470.34 342.12,468.95 342.08,468.28 C341.94,466.11 339.00,468.14 338.35,470.86 C338.00,472.31 337.10,474.74 336.33,476.25 C335.24,478.43 335.21,479.02 336.22,479.08 C337.23,479.14 337.23,479.27 336.25,479.66 C335.56,479.94 335.00,480.63 335.00,481.21 C335.00,481.83 335.59,481.75 336.50,481.00 C337.33,480.32 338.00,478.91 338.00,477.88 ZM 348.84 555.58 C349.31,553.14 347.02,548.00 345.45,548.00 C343.44,548.00 341.02,550.88 341.65,552.53 C341.96,553.34 342.84,554.00 343.61,554.00 C344.37,554.00 345.00,554.86 345.00,555.91 C345.00,558.34 348.36,558.04 348.84,555.58 ZM 631.50 416.23 C633.44,414.81 632.99,413.00 630.70,413.00 C629.43,413.00 627.91,412.51 627.32,411.92 C625.78,410.38 620.57,411.20 620.23,413.03 C620.02,414.12 620.89,414.64 623.20,414.82 C625.00,414.96 626.90,415.50 627.43,416.03 C628.58,417.18 630.11,417.25 631.50,416.23 ZM 676.50 457.00 C676.84,456.45 676.46,456.00 675.67,456.00 C674.87,456.00 673.95,455.33 673.64,454.50 C673.32,453.67 673.44,453.00 673.89,453.00 C675.23,453.00 674.32,448.14 672.46,445.30 C670.94,442.98 670.65,442.88 669.81,444.38 C669.14,445.57 669.55,447.84 671.18,452.03 C673.36,457.66 675.09,459.28 676.50,457.00 ZM 665.85 447.68 C667.07,446.20 665.58,444.00 663.37,444.00 C662.69,444.00 661.99,442.76 661.82,441.25 C661.37,437.35 658.74,437.74 657.90,441.84 C657.31,444.72 657.46,445.11 659.00,444.71 C660.19,444.40 661.15,445.04 661.87,446.62 C663.10,449.31 664.25,449.61 665.85,447.68 ZM 471.75 415.26 C472.31,413.56 465.41,410.68 462.51,411.41 C458.36,412.45 459.37,415.00 463.94,415.00 C466.11,415.00 468.17,415.47 468.53,416.05 C469.31,417.30 471.22,416.83 471.75,415.26 ZM 472.54 680.05 C470.79,678.11 466.89,677.84 466.30,679.61 C466.09,680.23 467.63,682.23 469.71,684.06 L 473.50 687.40 L 473.82 684.61 C474.01,683.04 473.45,681.05 472.54,680.05 ZM 377.00 588.09 C377.00,586.61 376.46,584.86 375.80,584.20 C374.35,582.75 369.00,582.59 369.00,584.00 C369.00,584.55 369.37,585.00 369.83,585.00 C370.29,585.00 371.26,586.11 371.98,587.47 C372.71,588.82 373.76,589.65 374.32,589.30 C374.93,588.93 375.09,589.32 374.72,590.29 C374.29,591.42 374.53,591.73 375.55,591.34 C376.35,591.04 377.00,589.57 377.00,588.09 ZM 489.55 699.25 C488.80,696.13 486.47,694.00 483.81,694.00 C481.24,694.00 481.57,695.94 484.69,699.20 C488.24,702.91 490.44,702.93 489.55,699.25 ZM 565.91 659.39 C568.03,656.69 567.89,655.00 565.56,655.00 C563.81,655.00 558.72,661.73 559.51,663.01 C560.35,664.37 563.31,662.70 565.91,659.39 ZM 686.37 537.82 C686.94,537.44 687.71,537.32 688.08,537.55 C688.91,538.06 690.23,531.90 689.46,531.13 C688.32,529.99 685.49,532.79 685.18,535.35 C685.01,536.84 684.24,538.00 683.43,538.00 C681.81,538.00 681.75,538.18 682.65,540.53 C683.24,542.08 683.38,542.06 684.31,540.36 C684.87,539.34 685.80,538.19 686.37,537.82 ZM 524.38 443.94 C525.57,442.85 524.42,440.10 522.46,439.34 C520.47,438.58 519.34,439.70 518.45,443.30 C517.79,445.97 517.89,446.07 520.63,445.42 C522.21,445.05 523.90,444.38 524.38,443.94 ZM 533.50 430.00 C533.16,429.45 533.48,429.00 534.22,429.00 C535.70,429.00 539.00,425.54 539.00,423.99 C539.00,422.25 535.07,422.93 532.98,425.02 C531.37,426.63 531.17,427.45 532.01,429.02 C532.59,430.11 533.31,431.00 533.59,431.00 C533.88,431.00 533.84,430.55 533.50,430.00 ZM 457.00 666.62 C457.00,663.58 455.00,661.93 452.20,662.66 C449.43,663.38 449.43,664.39 452.19,666.96 C455.10,669.67 457.00,669.54 457.00,666.62 ZM 596.83 627.87 C599.20,625.65 599.85,624.45 599.08,623.68 C598.31,622.91 597.00,623.58 594.50,626.00 C592.58,627.86 591.00,629.75 591.00,630.20 C591.00,631.91 593.65,630.85 596.83,627.87 ZM 398.00 594.50 C396.14,592.58 394.25,591.00 393.80,591.00 C392.09,591.00 393.15,593.65 396.13,596.83 C398.35,599.20 399.55,599.85 400.32,599.08 C401.09,598.31 400.42,597.00 398.00,594.50 ZM 385.00 582.30 C385.00,581.31 378.78,575.00 377.80,575.00 C376.18,575.00 377.07,577.47 379.69,580.20 C382.19,582.80 385.00,583.92 385.00,582.30 ZM 369.00 566.30 C369.00,565.31 362.78,559.00 361.80,559.00 C360.18,559.00 361.07,561.47 363.69,564.20 C366.19,566.80 369.00,567.92 369.00,566.30 ZM 644.20 580.31 C646.80,577.81 647.92,575.00 646.30,575.00 C645.31,575.00 639.00,581.22 639.00,582.20 C639.00,583.82 641.47,582.93 644.20,580.31 ZM 628.20 596.31 C630.80,593.81 631.92,591.00 630.30,591.00 C629.31,591.00 623.00,597.22 623.00,598.20 C623.00,599.82 625.47,598.93 628.20,596.31 ZM 612.20 612.31 C614.80,609.81 615.92,607.00 614.30,607.00 C613.31,607.00 607.00,613.22 607.00,614.20 C607.00,615.82 609.47,614.93 612.20,612.31 ZM 580.20 644.31 C582.80,641.81 583.92,639.00 582.30,639.00 C581.31,639.00 575.00,645.22 575.00,646.20 C575.00,647.82 577.47,646.93 580.20,644.31 ZM 507.43 447.32 C507.78,446.40 507.47,445.05 506.74,444.31 C504.93,442.50 501.38,444.94 502.31,447.36 C503.13,449.50 506.60,449.48 507.43,447.32 ZM 613.79 410.00 C614.45,410.00 615.00,409.58 615.00,409.07 C615.00,408.19 611.95,408.79 607.77,410.50 C606.35,411.07 606.24,411.58 607.16,413.29 C608.27,415.37 608.30,415.36 610.43,412.69 C611.61,411.21 613.12,410.00 613.79,410.00 ZM 598.00 409.01 C599.43,408.58 593.99,407.13 590.75,407.07 C587.12,407.00 585.70,408.29 588.25,409.35 C589.28,409.78 596.21,409.53 598.00,409.01 ZM 516.32 707.60 C517.03,705.75 516.18,705.00 513.33,705.00 C511.67,705.00 511.00,705.57 511.00,707.00 C511.00,708.44 511.67,709.00 513.39,709.00 C514.71,709.00 516.03,708.37 516.32,707.60 ZM 556.06 415.42 C557.14,414.12 557.13,413.70 555.99,412.99 C554.25,411.92 551.00,413.57 551.00,415.54 C551.00,417.48 554.42,417.41 556.06,415.42 ZM 689.29 479.00 C689.00,477.91 688.22,477.36 687.40,477.68 C685.79,478.29 685.52,481.58 687.00,482.50 C687.55,482.84 688.05,484.10 688.10,485.31 C688.17,486.80 688.46,486.44 688.99,484.18 C689.42,482.35 689.56,480.02 689.29,479.00 ZM 515.00 448.00 C515.59,446.90 515.72,445.96 515.29,445.92 C514.85,445.87 513.50,445.72 512.28,445.59 C510.23,445.36 509.91,446.34 510.93,449.75 C511.25,450.84 514.14,449.60 515.00,448.00 ZM 463.41 673.85 C462.71,672.71 459.27,672.76 458.55,673.92 C458.24,674.43 458.74,675.60 459.67,676.53 C461.26,678.12 461.44,678.11 462.65,676.46 C463.36,675.50 463.70,674.32 463.41,673.85 ZM 563.81 413.26 C563.41,411.17 560.24,410.36 558.65,411.95 C557.80,412.80 557.90,413.32 559.01,414.03 C561.52,415.62 564.18,415.19 563.81,413.26 ZM 395.80 415.80 C397.76,413.84 397.18,412.85 394.26,413.18 C391.06,413.55 389.68,417.00 392.73,417.00 C393.76,417.00 395.14,416.46 395.80,415.80 ZM 405.00 415.06 C405.00,413.89 403.62,413.00 401.00,412.50 C398.74,412.07 398.41,413.01 400.20,414.80 C401.62,416.22 405.00,416.40 405.00,415.06 ZM 417.76 412.25 C418.02,411.43 417.10,411.00 415.08,411.00 C412.95,411.00 412.00,411.48 412.00,412.57 C412.00,414.47 417.12,414.19 417.76,412.25 ZM 527.97 434.46 C526.73,432.97 525.00,433.36 525.00,435.12 C525.00,435.67 525.52,435.80 526.15,435.40 C526.87,434.96 527.04,435.13 526.60,435.85 C526.20,436.48 526.20,437.51 526.58,438.13 C527.05,438.90 527.58,438.72 528.22,437.58 C528.84,436.46 528.76,435.41 527.97,434.46 ZM 682.23 553.22 C682.56,551.97 682.12,551.36 680.85,551.26 C678.90,551.12 678.61,551.83 679.60,554.41 C680.33,556.30 681.58,555.73 682.23,553.22 ZM 416.65 621.23 C415.14,619.72 414.81,619.69 413.99,621.00 C413.29,622.13 413.61,622.64 415.28,623.09 C418.29,623.88 418.72,623.29 416.65,621.23 ZM 642.39 430.58 C641.90,429.31 639.00,427.49 639.00,428.45 C639.00,430.00 640.45,432.00 641.58,432.00 C642.34,432.00 642.70,431.38 642.39,430.58 ZM 673.00 545.50 C673.00,544.67 672.58,544.00 672.06,544.00 C670.80,544.00 669.89,545.56 670.69,546.36 C671.82,547.49 673.00,547.05 673.00,545.50 ZM 673.36 464.50 C673.05,463.67 672.38,463.00 671.89,463.00 C671.40,463.00 671.00,463.67 671.00,464.50 C671.00,465.33 671.66,466.00 672.47,466.00 C673.36,466.00 673.71,465.41 673.36,464.50 ZM 353.00 460.53 C353.00,459.64 352.41,459.29 351.50,459.64 C350.67,459.95 350.00,460.62 350.00,461.11 C350.00,461.60 350.67,462.00 351.50,462.00 C352.33,462.00 353.00,461.34 353.00,460.53 ZM 497.05 703.18 C496.25,702.92 495.43,703.22 495.21,703.86 C495.00,704.49 494.35,704.72 493.76,704.35 C493.13,703.96 492.98,704.16 493.41,704.85 C493.95,705.72 494.65,705.72 496.31,704.84 C497.95,703.95 498.14,703.55 497.05,703.18 ZM 377.00 432.11 C377.00,431.62 376.35,430.96 375.55,430.66 C374.58,430.29 374.29,430.58 374.66,431.55 C375.26,433.13 377.00,433.54 377.00,432.11 ZM 546.50 422.00 C546.16,421.45 545.46,421.00 544.94,421.00 C544.42,421.00 544.00,421.45 544.00,422.00 C544.00,422.55 544.70,423.00 545.56,423.00 C546.42,423.00 546.84,422.55 546.50,422.00 ZM 365.00 448.00 C365.00,447.45 364.55,447.00 364.00,447.00 C363.45,447.00 363.00,447.45 363.00,448.00 C363.00,448.55 363.45,449.00 364.00,449.00 C364.55,449.00 365.00,448.55 365.00,448.00 Z" fill="rgb(253,116,194)"/>
<path d="M 0.00 512.00 L 0.00 0.00 L 512.00 0.00 L 1024.00 0.00 L 1024.00 512.00 L 1024.00 1024.00 L 512.00 1024.00 L 0.00 1024.00 L 0.00 512.00 ZM 389.48 879.88 C394.57,878.47 400.47,872.57 401.88,867.48 C402.55,865.07 402.99,853.72 402.99,838.75 L 403.00 814.00 L 511.50 814.00 L 620.00 814.00 L 620.00 839.03 C620.00,866.27 620.39,868.64 625.80,874.34 C631.80,880.65 630.34,880.47 678.21,880.80 C707.55,881.00 723.26,880.74 725.98,880.01 C730.90,878.68 736.82,873.68 738.65,869.30 C739.67,866.86 740.00,859.63 740.00,840.03 L 740.00 814.00 L 758.25 813.98 C778.43,813.96 785.34,812.93 797.22,808.17 C816.36,800.51 832.30,785.39 841.02,766.63 C848.59,750.36 848.09,766.55 847.78,546.00 L 847.50 348.50 L 844.74 339.71 C835.19,309.26 814.52,288.95 783.29,279.30 L 774.50 276.58 L 722.75 276.23 L 671.00 275.87 L 671.00 225.62 C671.00,182.35 670.78,174.61 669.39,169.93 C665.16,155.65 654.24,145.70 639.79,142.96 C636.72,142.38 585.54,142.00 510.07,142.00 C375.97,142.00 380.09,141.85 369.87,147.06 C363.98,150.07 357.24,157.26 354.17,163.80 L 351.50 169.50 L 351.21 222.75 L 350.92 276.00 L 304.21 276.01 C256.42,276.02 249.69,276.43 238.00,280.10 C209.57,289.01 189.43,309.41 180.30,338.55 L 177.50 347.50 L 177.50 548.00 L 177.50 748.50 L 179.80 756.50 C187.28,782.54 205.22,801.33 231.00,810.12 C240.26,813.28 241.02,813.37 261.25,813.79 L 282.00 814.23 L 282.01 839.36 C282.02,863.71 282.09,864.66 284.39,869.60 C286.93,875.04 291.27,878.83 296.36,880.05 C301.57,881.29 384.94,881.14 389.48,879.88 ZM 401.00 234.50 L 401.00 193.00 L 510.50 193.00 L 620.00 193.00 L 620.00 234.50 L 620.00 276.00 L 510.50 276.00 L 401.00 276.00 L 401.00 234.50 Z" fill="rgb(254,254,254)"/>
</g>
</svg>