<svg xmlns="http://www.w3.org/2000/svg" xmlns:v="https://svgstorm.com"
viewBox = "0 0 500 500"
width="500"
height="500">
<g fill="None" fill-opacity="0.0" stroke="#000000" stroke-opacity="0.00" stroke-width="0.3"><path d="
M 0.00 500.00 
L 500.00 500.00
L 500.00 0.00
L 0.00 0.00
L 0.00 500.00
M 313.00 70.00 
C 313.50 70.00 314.00 70.00 314.00 70.00
C 317.88 70.08 320.63 72.20 323.00 75.00
C 325.57 78.03 326.17 80.25 327.00 84.00
C 330.51 99.83 326.45 118.35 328.00 135.00
C 330.31 136.95 336.51 134.11 340.25 134.80 C 343.98 135.49 350.38 134.49 355.00 135.00 C 359.62 135.51 365.95 135.14 371.00 135.00 C 376.05 134.86 381.30 135.39 386.00 137.00
C 389.55 138.22 392.27 139.55 395.00 142.00
C 395.63 142.32 396.43 142.65 397.00 143.00
C 403.94 147.32 407.91 153.83 411.00 161.00
C 412.12 163.60 412.36 165.26 413.00 168.00
C 413.34 169.45 414.26 170.90 414.00 173.00
C 415.40 182.68 415.08 193.55 415.00 204.00 C 414.92 214.45 415.16 225.53 415.00 236.00 C 414.84 246.47 415.35 257.63 415.00 268.00 C 414.65 278.37 415.78 289.92 415.00 300.00 C 414.22 310.08 416.72 322.62 415.00 332.00 C 413.28 341.38 419.28 355.84 414.00 363.00
C 414.00 363.50 414.00 364.00 414.00 364.00
C 414.18 366.63 414.10 369.39 412.00 371.00
C 411.84 371.44 412.00 372.00 412.00 372.00
C 411.39 374.60 410.36 377.52 408.00 379.00
C 407.83 379.43 408.00 380.00 408.00 380.00
C 406.76 383.43 403.75 385.83 401.00 388.00
C 395.00 392.73 388.74 396.47 381.00 397.00
C 375.35 398.01 368.35 398.32 362.00 398.00
C 361.34 406.50 363.33 416.33 361.00 424.00
C 358.08 432.41 347.27 430.28 339.00 430.00 C 330.73 429.72 319.43 431.04 311.00 430.00
C 308.02 429.63 304.14 428.32 303.00 425.00
C 302.85 424.55 303.00 423.50 303.00 423.00
C 300.44 416.98 301.37 404.99 302.00 398.00
C 267.47 397.94 231.37 401.11 197.00 398.00
C 197.00 405.80 197.96 414.27 197.00 422.00
C 196.51 425.95 195.75 426.03 193.00 428.00
C 191.19 429.29 191.58 429.61 189.00 430.00
C 180.10 431.33 168.83 429.46 160.00 430.00 C 151.17 430.54 140.81 432.27 138.00 423.00
C 135.95 416.26 136.32 405.56 137.00 398.00
C 130.59 397.99 123.67 398.02 118.00 397.00
C 111.55 396.56 106.13 393.81 101.00 390.00
C 97.24 387.21 94.25 383.92 92.00 380.00
C 90.58 377.53 89.77 375.75 89.00 373.00
C 87.86 370.06 86.29 367.61 86.00 364.00
C 84.28 342.30 86.27 319.76 86.00 298.00 C 85.73 276.24 85.06 252.56 86.00 231.00 C 86.94 209.44 82.30 185.86 88.00 166.00
C 88.54 162.83 88.66 161.79 90.00 159.00
C 93.59 151.49 99.05 143.71 107.00 140.00
C 108.11 139.48 108.85 139.36 110.00 139.00
C 111.26 138.41 112.50 137.56 114.00 137.00
C 119.76 134.85 125.32 135.14 131.03 134.98 C 136.73 134.81 146.76 136.38 152.00 135.00 C 157.24 133.62 166.55 138.12 171.00 135.00
C 172.74 117.63 168.12 99.37 172.00 83.00
C 172.18 81.31 172.35 80.53 173.00 79.00
C 174.22 76.14 176.33 73.63 179.00 72.00
C 181.50 70.47 183.23 70.57 186.00 70.00
C 195.36 68.06 206.85 68.92 217.00 69.00 C 227.15 69.08 239.01 68.31 249.00 69.00 C 258.99 69.69 271.62 67.23 281.00 69.00 C 290.38 70.77 305.78 64.66 313.00 70.00 Z"/>
</g>
<g fill="None" fill-opacity="0.0" stroke="#B49CE9" stroke-opacity="0.45" stroke-width="0.3"><path d="
M 186.00 70.00 
C 206.92 68.10 227.93 70.70 249.00 70.00 C 270.07 69.30 291.87 70.00 313.00 70.00
C 305.78 64.66 290.38 70.77 281.00 69.00 C 271.62 67.23 258.99 69.69 249.00 69.00 C 239.01 68.31 227.15 69.08 217.00 69.00 C 206.85 68.92 195.36 68.06 186.00 70.00 Z"/>
</g>
<g fill="None" fill-opacity="0.0" stroke="#6C3BED" stroke-opacity="1.00" stroke-width="0.3"><path d="
M 179.00 72.00 
C 177.29 73.23 173.89 77.38 173.00 79.00
C 172.35 80.53 172.18 81.31 172.00 83.00
C 171.44 88.28 172.62 94.83 172.00 100.00 C 171.38 105.17 173.05 113.35 172.00 118.00 C 170.95 122.65 174.65 132.44 171.00 135.00
C 166.55 138.12 157.24 133.62 152.00 135.00 C 146.76 136.38 136.73 134.81 131.03 134.98 C 125.32 135.14 119.76 134.85 114.00 137.00
C 112.63 137.71 111.68 138.47 110.00 139.00
C 108.85 139.36 108.11 139.48 107.00 140.00
C 100.43 144.19 93.80 152.60 90.00 159.00
C 88.66 161.79 88.54 162.83 88.00 166.00
C 82.69 197.43 87.44 231.68 87.00 264.00 C 86.56 296.32 84.43 331.66 87.00 364.00
C 87.24 367.06 88.18 370.05 89.00 373.00
C 89.77 375.75 90.58 377.53 92.00 380.00
C 94.21 383.07 98.03 387.42 101.00 390.00
C 106.13 393.81 111.55 396.56 118.00 397.00
C 122.62 397.31 134.92 394.79 138.00 398.00
C 138.74 406.16 136.64 414.94 138.00 423.00
C 140.81 432.27 151.17 430.54 160.00 430.00 C 168.83 429.46 180.10 431.33 189.00 430.00
C 189.84 429.80 191.93 428.56 193.00 428.00
C 195.75 426.03 196.51 425.95 197.00 422.00
C 197.14 417.01 192.69 401.14 197.00 397.00
C 205.42 396.23 214.58 397.06 223.00 397.00 C 231.42 396.94 241.83 396.46 250.00 397.00 C 258.17 397.54 269.65 395.50 277.00 397.00 C 284.35 398.50 298.25 393.06 303.00 398.00
C 303.74 406.18 303.00 414.78 303.00 423.00
C 303.00 423.50 302.85 424.55 303.00 425.00
C 304.12 426.91 309.31 429.65 311.00 430.00
C 319.43 431.04 330.73 429.72 339.00 430.00 C 347.27 430.28 358.08 432.41 361.00 424.00
C 362.46 416.82 359.81 408.18 361.00 401.00 C 362.19 393.82 374.99 397.41 381.00 397.00
C 388.74 396.47 395.00 392.73 401.00 388.00
C 403.60 385.60 405.59 382.31 408.00 380.00
C 408.00 380.00 407.83 379.43 408.00 379.00
C 408.98 376.50 410.44 373.94 412.00 372.00
C 412.00 372.00 411.84 371.44 412.00 371.00
C 412.82 368.70 413.13 366.00 414.00 364.00
C 414.00 364.00 414.00 363.50 414.00 363.00
C 414.00 300.00 414.00 237.00 414.00 174.00
C 413.85 172.67 413.22 169.89 413.00 168.00
C 412.36 165.26 412.12 163.60 411.00 161.00
C 407.60 154.64 402.58 148.21 397.00 143.00
C 396.43 142.65 395.63 142.32 395.00 142.00
C 392.00 140.47 388.79 138.32 386.00 137.00
C 381.30 135.39 376.05 134.86 371.00 135.00 C 365.95 135.14 359.62 135.51 355.00 135.00 C 350.38 134.49 343.98 135.49 340.25 134.80 C 336.51 134.11 330.31 136.95 328.00 135.00
C 324.50 132.06 327.98 123.74 327.00 119.00 C 326.02 114.26 327.56 107.32 327.00 102.00 C 326.44 96.68 327.56 89.47 327.00 84.00
C 326.17 80.25 325.57 78.03 323.00 75.00
C 320.54 72.68 316.66 71.39 314.00 70.00
C 314.00 70.00 313.50 70.00 313.00 70.00
C 291.87 70.00 270.07 69.30 249.00 70.00 C 227.93 70.70 206.92 68.10 186.00 70.00
C 183.23 70.57 181.50 70.47 179.00 72.00
M 302.00 135.00 
C 297.55 138.12 286.71 133.84 281.00 135.00 C 275.29 136.16 268.31 134.37 262.00 135.00 C 255.69 135.63 247.43 135.06 241.00 135.00 C 234.57 134.94 225.07 135.69 219.00 135.00 C 212.93 134.31 202.87 136.90 198.00 135.00 C 193.13 133.10 195.79 120.41 196.00 116.00 C 196.21 111.59 193.39 99.22 196.33 95.33 C 199.27 91.44 211.62 94.82 217.00 94.00 C 222.38 93.18 231.89 94.11 238.00 94.00 C 244.11 93.89 252.76 93.48 259.00 94.00 C 265.24 94.52 274.14 92.50 280.00 94.00 C 285.86 95.50 297.29 90.70 302.00 94.00
C 304.92 96.04 303.14 110.16 303.00 114.00 C 302.86 117.84 305.07 132.85 302.00 135.00
M 218.00 198.00 
C 230.79 198.49 243.04 206.25 250.00 217.00
C 259.90 202.22 278.71 195.32 295.67 197.33 C 312.63 199.34 326.82 210.45 334.31 225.70 C 341.79 240.94 340.78 265.18 329.23 278.23 C 317.68 291.28 307.58 298.68 295.75 311.75 C 283.92 324.82 274.74 330.99 261.77 344.77 C 248.80 358.55 233.50 341.05 222.75 329.25 C 212.00 317.45 199.38 308.23 188.75 296.25 C 178.13 284.26 162.13 273.51 162.00 256.00
C 161.16 250.83 161.17 245.11 162.00 240.00
C 163.08 220.14 182.96 199.09 203.00 198.00
C 207.89 197.21 213.20 197.31 218.00 198.00 Z"/>
</g>
<g fill="None" fill-opacity="0.0" stroke="#DBCBFE" stroke-opacity="0.18" stroke-width="0.3"><path d="
M 323.00 75.00 
C 320.63 72.20 317.88 70.08 314.00 70.00
C 316.66 71.39 320.54 72.68 323.00 75.00 Z"/>
</g>
<g fill="None" fill-opacity="0.0" stroke="#DBC5FA" stroke-opacity="0.22" stroke-width="0.3"><path d="
M 173.00 79.00 
C 173.89 77.38 177.29 73.23 179.00 72.00
C 176.33 73.63 174.22 76.14 173.00 79.00 Z"/>
</g>
<g fill="None" fill-opacity="0.0" stroke="#9178D5" stroke-opacity="0.67" stroke-width="0.3"><path d="
M 171.00 135.00 
C 174.65 132.44 170.95 122.65 172.00 118.00 C 173.05 113.35 171.38 105.17 172.00 100.00 C 172.62 94.83 171.44 88.28 172.00 83.00
C 168.12 99.37 172.74 117.63 171.00 135.00 Z"/>
</g>
<g fill="None" fill-opacity="0.0" stroke="#9F83EF" stroke-opacity="0.48" stroke-width="0.3"><path d="
M 328.00 135.00 
C 326.45 118.35 330.51 99.83 327.00 84.00
C 327.56 89.47 326.44 96.68 327.00 102.00 C 327.56 107.32 326.02 114.26 327.00 119.00 C 327.98 123.74 324.50 132.06 328.00 135.00 Z"/>
</g>
<g fill="None" fill-opacity="0.0" stroke="#000000" stroke-opacity="0.00" stroke-width="0.3"><path d="
M 302.00 135.00 
C 302.00 121.33 302.00 107.67 302.00 94.00
C 297.29 90.70 285.86 95.50 280.00 94.00 C 274.14 92.50 265.24 94.52 259.00 94.00 C 252.76 93.48 244.11 93.89 238.00 94.00 C 231.89 94.11 222.38 93.18 217.00 94.00 C 211.62 94.82 199.27 91.44 196.33 95.33 C 193.39 99.22 196.21 111.59 196.00 116.00 C 195.79 120.41 193.13 133.10 198.00 135.00 C 202.87 136.90 212.93 134.31 219.00 135.00 C 225.07 135.69 234.57 134.94 241.00 135.00 C 247.43 135.06 255.69 135.63 262.00 135.00 C 268.31 134.37 275.29 136.16 281.00 135.00 C 286.71 133.84 297.55 138.12 302.00 135.00 Z"/>
</g>
<g fill="None" fill-opacity="0.0" stroke="#C9B0FE" stroke-opacity="0.25" stroke-width="0.3"><path d="
M 302.00 135.00 
C 305.07 132.85 302.86 117.84 303.00 114.00 C 303.14 110.16 304.92 96.04 302.00 94.00
C 302.00 107.67 302.00 121.33 302.00 135.00 Z"/>
</g>
<g fill="None" fill-opacity="0.0" stroke="#C7AFF4" stroke-opacity="0.25" stroke-width="0.3"><path d="
M 110.00 139.00 
C 111.68 138.47 112.63 137.71 114.00 137.00
C 112.50 137.56 111.26 138.41 110.00 139.00 Z"/>
</g>
<g fill="None" fill-opacity="0.0" stroke="#D5C4F7" stroke-opacity="0.17" stroke-width="0.3"><path d="
M 395.00 142.00 
C 392.27 139.55 389.55 138.22 386.00 137.00
C 388.79 138.32 392.00 140.47 395.00 142.00 Z"/>
</g>
<g fill="None" fill-opacity="0.0" stroke="#C7B9F1" stroke-opacity="0.27" stroke-width="0.3"><path d="
M 90.00 159.00 
C 93.80 152.60 100.43 144.19 107.00 140.00
C 99.05 143.71 93.59 151.49 90.00 159.00 Z"/>
</g>
<g fill="None" fill-opacity="0.0" stroke="#C6B6F3" stroke-opacity="0.28" stroke-width="0.3"><path d="
M 411.00 161.00 
C 407.91 153.83 403.94 147.32 397.00 143.00
C 402.58 148.21 407.60 154.64 411.00 161.00 Z"/>
</g>
<g fill="None" fill-opacity="0.0" stroke="#A990F3" stroke-opacity="0.38" stroke-width="0.3"><path d="
M 86.00 364.00 
C 86.00 364.04 87.00 364.00 87.00 364.00
C 84.43 331.66 86.56 296.32 87.00 264.00 C 87.44 231.68 82.69 197.43 88.00 166.00
C 82.30 185.86 86.94 209.44 86.00 231.00 C 85.06 252.56 85.73 276.24 86.00 298.00 C 86.27 319.76 84.28 342.30 86.00 364.00 Z"/>
</g>
<g fill="None" fill-opacity="0.0" stroke="#B19FEF" stroke-opacity="0.40" stroke-width="0.3"><path d="
M 414.00 174.00 
C 414.00 173.50 414.00 173.00 414.00 173.00
C 414.26 170.90 413.34 169.45 413.00 168.00
C 413.22 169.89 413.85 172.67 414.00 174.00 Z"/>
</g>
<g fill="None" fill-opacity="0.0" stroke="#ECDBFF" stroke-opacity="0.13" stroke-width="0.3"><path d="
M 414.00 174.00 
C 414.00 237.00 414.00 300.00 414.00 363.00
C 419.28 355.84 413.28 341.38 415.00 332.00 C 416.72 322.62 414.22 310.08 415.00 300.00 C 415.78 289.92 414.65 278.37 415.00 268.00 C 415.35 257.63 414.84 246.47 415.00 236.00 C 415.16 225.53 414.92 214.45 415.00 204.00 C 415.08 193.55 415.40 182.68 414.00 173.00
C 414.00 173.00 414.00 173.50 414.00 174.00 Z"/>
</g>
<g fill="None" fill-opacity="0.0" stroke="#C369EB" stroke-opacity="1.00" stroke-width="0.3"><path d="
M 203.00 198.00 
C 207.92 197.73 213.07 197.81 218.00 198.00
C 213.20 197.31 207.89 197.21 203.00 198.00 Z"/>
</g>
<g fill="None" fill-opacity="0.0" stroke="#FC74C2" stroke-opacity="1.00" stroke-width="0.3"><path d="
M 218.00 198.00 
C 213.07 197.81 207.92 197.73 203.00 198.00
C 182.96 199.09 163.08 220.14 162.00 240.00
C 161.72 245.23 161.72 250.77 162.00 256.00
C 162.13 273.51 178.13 284.26 188.75 296.25 C 199.38 308.23 212.00 317.45 222.75 329.25 C 233.50 341.05 248.80 358.55 261.77 344.77 C 274.74 330.99 283.92 324.82 295.75 311.75 C 307.58 298.68 317.68 291.28 329.23 278.23 C 340.78 265.18 341.79 240.94 334.31 225.70 C 326.82 210.45 312.63 199.34 295.67 197.33 C 278.71 195.32 259.90 202.22 250.00 217.00
C 243.04 206.25 230.79 198.49 218.00 198.00 Z"/>
</g>
<g fill="None" fill-opacity="0.0" stroke="#DD7FF3" stroke-opacity="1.00" stroke-width="0.3"><path d="
M 162.00 256.00 
C 161.72 250.77 161.72 245.23 162.00 240.00
C 161.17 245.11 161.16 250.83 162.00 256.00 Z"/>
</g>
<g fill="None" fill-opacity="0.0" stroke="#E4D6FD" stroke-opacity="0.18" stroke-width="0.3"><path d="
M 89.00 373.00 
C 88.18 370.05 87.24 367.06 87.00 364.00
C 87.00 364.00 86.00 364.04 86.00 364.00
C 86.29 367.61 87.86 370.06 89.00 373.00 Z"/>
</g>
<g fill="None" fill-opacity="0.0" stroke="#D0C2F7" stroke-opacity="0.25" stroke-width="0.3"><path d="
M 412.00 371.00 
C 414.10 369.39 414.18 366.63 414.00 364.00
C 413.13 366.00 412.82 368.70 412.00 371.00 Z"/>
</g>
<g fill="None" fill-opacity="0.0" stroke="#D1BCF8" stroke-opacity="0.29" stroke-width="0.3"><path d="
M 408.00 379.00 
C 410.36 377.52 411.39 374.60 412.00 372.00
C 410.44 373.94 408.98 376.50 408.00 379.00 Z"/>
</g>
<g fill="None" fill-opacity="0.0" stroke="#D1BBF7" stroke-opacity="0.20" stroke-width="0.3"><path d="
M 101.00 390.00 
C 98.03 387.42 94.21 383.07 92.00 380.00
C 94.25 383.92 97.24 387.21 101.00 390.00 Z"/>
</g>
<g fill="None" fill-opacity="0.0" stroke="#E4CCFD" stroke-opacity="0.12" stroke-width="0.3"><path d="
M 401.00 388.00 
C 403.75 385.83 406.76 383.43 408.00 380.00
C 405.59 382.31 403.60 385.60 401.00 388.00 Z"/>
</g>
<g fill="None" fill-opacity="0.0" stroke="#AC92F4" stroke-opacity="0.39" stroke-width="0.3"><path d="
M 137.00 398.00 
C 137.50 398.00 138.00 398.00 138.00 398.00
C 134.92 394.79 122.62 397.31 118.00 397.00
C 123.67 398.02 130.59 397.99 137.00 398.00 Z"/>
</g>
<g fill="None" fill-opacity="0.0" stroke="#6144B4" stroke-opacity="0.57" stroke-width="0.3"><path d="
M 197.00 422.00 
C 197.96 414.27 197.00 405.80 197.00 398.00
C 197.00 397.50 197.00 397.00 197.00 397.00
C 192.69 401.14 197.14 417.01 197.00 422.00 Z"/>
</g>
<g fill="None" fill-opacity="0.0" stroke="#9F84EC" stroke-opacity="0.47" stroke-width="0.3"><path d="
M 197.00 398.00 
C 231.37 401.11 267.47 397.94 302.00 398.00
C 302.50 398.00 303.00 398.00 303.00 398.00
C 298.25 393.06 284.35 398.50 277.00 397.00 C 269.65 395.50 258.17 397.54 250.00 397.00 C 241.83 396.46 231.42 396.94 223.00 397.00 C 214.58 397.06 205.42 396.23 197.00 397.00
C 197.00 397.00 197.00 397.50 197.00 398.00 Z"/>
</g>
<g fill="None" fill-opacity="0.0" stroke="#A086ED" stroke-opacity="0.38" stroke-width="0.3"><path d="
M 361.00 424.00 
C 363.33 416.33 361.34 406.50 362.00 398.00
C 368.35 398.32 375.35 398.01 381.00 397.00
C 374.99 397.41 362.19 393.82 361.00 401.00 C 359.81 408.18 362.46 416.82 361.00 424.00 Z"/>
</g>
<g fill="None" fill-opacity="0.0" stroke="#AF98E7" stroke-opacity="0.23" stroke-width="0.3"><path d="
M 138.00 423.00 
C 136.64 414.94 138.74 406.16 138.00 398.00
C 138.00 398.00 137.50 398.00 137.00 398.00
C 136.32 405.56 135.95 416.26 138.00 423.00 Z"/>
</g>
<g fill="None" fill-opacity="0.0" stroke="#CCB4FF" stroke-opacity="0.23" stroke-width="0.3"><path d="
M 303.00 423.00 
C 303.00 414.78 303.74 406.18 303.00 398.00
C 303.00 398.00 302.50 398.00 302.00 398.00
C 301.37 404.99 300.44 416.98 303.00 423.00 Z"/>
</g>
<g fill="None" fill-opacity="0.0" stroke="#D5C3F9" stroke-opacity="0.21" stroke-width="0.3"><path d="
M 311.00 430.00 
C 309.31 429.65 304.12 426.91 303.00 425.00
C 304.14 428.32 308.02 429.63 311.00 430.00 Z"/>
</g>
<g fill="None" fill-opacity="0.0" stroke="#CAACFA" stroke-opacity="0.33" stroke-width="0.3"><path d="
M 189.00 430.00 
C 191.58 429.61 191.19 429.29 193.00 428.00
C 191.93 428.56 189.84 429.80 189.00 430.00 Z"/>
</g>
<g fill="#000000" fill-opacity="0.00" stroke="None">
<path d="
M 0.00 500.00 
L 500.00 500.00
L 500.00 0.00
L 0.00 0.00
L 0.00 500.00
M 313.00 70.00 
C 313.50 70.00 314.00 70.00 314.00 70.00
C 317.88 70.08 320.63 72.20 323.00 75.00
C 325.57 78.03 326.17 80.25 327.00 84.00
C 330.51 99.83 326.45 118.35 328.00 135.00
C 330.31 136.95 336.51 134.11 340.25 134.80 C 343.98 135.49 350.38 134.49 355.00 135.00 C 359.62 135.51 365.95 135.14 371.00 135.00 C 376.05 134.86 381.30 135.39 386.00 137.00
C 389.55 138.22 392.27 139.55 395.00 142.00
C 395.63 142.32 396.43 142.65 397.00 143.00
C 403.94 147.32 407.91 153.83 411.00 161.00
C 412.12 163.60 412.36 165.26 413.00 168.00
C 413.34 169.45 414.26 170.90 414.00 173.00
C 415.40 182.68 415.08 193.55 415.00 204.00 C 414.92 214.45 415.16 225.53 415.00 236.00 C 414.84 246.47 415.35 257.63 415.00 268.00 C 414.65 278.37 415.78 289.92 415.00 300.00 C 414.22 310.08 416.72 322.62 415.00 332.00 C 413.28 341.38 419.28 355.84 414.00 363.00
C 414.00 363.50 414.00 364.00 414.00 364.00
C 414.18 366.63 414.10 369.39 412.00 371.00
C 411.84 371.44 412.00 372.00 412.00 372.00
C 411.39 374.60 410.36 377.52 408.00 379.00
C 407.83 379.43 408.00 380.00 408.00 380.00
C 406.76 383.43 403.75 385.83 401.00 388.00
C 395.00 392.73 388.74 396.47 381.00 397.00
C 375.35 398.01 368.35 398.32 362.00 398.00
C 361.34 406.50 363.33 416.33 361.00 424.00
C 358.08 432.41 347.27 430.28 339.00 430.00 C 330.73 429.72 319.43 431.04 311.00 430.00
C 308.02 429.63 304.14 428.32 303.00 425.00
C 302.85 424.55 303.00 423.50 303.00 423.00
C 300.44 416.98 301.37 404.99 302.00 398.00
C 267.47 397.94 231.37 401.11 197.00 398.00
C 197.00 405.80 197.96 414.27 197.00 422.00
C 196.51 425.95 195.75 426.03 193.00 428.00
C 191.19 429.29 191.58 429.61 189.00 430.00
C 180.10 431.33 168.83 429.46 160.00 430.00 C 151.17 430.54 140.81 432.27 138.00 423.00
C 135.95 416.26 136.32 405.56 137.00 398.00
C 130.59 397.99 123.67 398.02 118.00 397.00
C 111.55 396.56 106.13 393.81 101.00 390.00
C 97.24 387.21 94.25 383.92 92.00 380.00
C 90.58 377.53 89.77 375.75 89.00 373.00
C 87.86 370.06 86.29 367.61 86.00 364.00
C 84.28 342.30 86.27 319.76 86.00 298.00 C 85.73 276.24 85.06 252.56 86.00 231.00 C 86.94 209.44 82.30 185.86 88.00 166.00
C 88.54 162.83 88.66 161.79 90.00 159.00
C 93.59 151.49 99.05 143.71 107.00 140.00
C 108.11 139.48 108.85 139.36 110.00 139.00
C 111.26 138.41 112.50 137.56 114.00 137.00
C 119.76 134.85 125.32 135.14 131.03 134.98 C 136.73 134.81 146.76 136.38 152.00 135.00 C 157.24 133.62 166.55 138.12 171.00 135.00
C 172.74 117.63 168.12 99.37 172.00 83.00
C 172.18 81.31 172.35 80.53 173.00 79.00
C 174.22 76.14 176.33 73.63 179.00 72.00
C 181.50 70.47 183.23 70.57 186.00 70.00
C 195.36 68.06 206.85 68.92 217.00 69.00 C 227.15 69.08 239.01 68.31 249.00 69.00 C 258.99 69.69 271.62 67.23 281.00 69.00 C 290.38 70.77 305.78 64.66 313.00 70.00 Z"/>
</g>
<g fill="#B49CE9" fill-opacity="0.45" stroke="None">
<path d="
M 186.00 70.00 
C 206.92 68.10 227.93 70.70 249.00 70.00 C 270.07 69.30 291.87 70.00 313.00 70.00
C 305.78 64.66 290.38 70.77 281.00 69.00 C 271.62 67.23 258.99 69.69 249.00 69.00 C 239.01 68.31 227.15 69.08 217.00 69.00 C 206.85 68.92 195.36 68.06 186.00 70.00 Z"/>
</g>
<g fill="#6C3BED" fill-opacity="1.00" stroke="None">
<path d="
M 179.00 72.00 
C 177.29 73.23 173.89 77.38 173.00 79.00
C 172.35 80.53 172.18 81.31 172.00 83.00
C 171.44 88.28 172.62 94.83 172.00 100.00 C 171.38 105.17 173.05 113.35 172.00 118.00 C 170.95 122.65 174.65 132.44 171.00 135.00
C 166.55 138.12 157.24 133.62 152.00 135.00 C 146.76 136.38 136.73 134.81 131.03 134.98 C 125.32 135.14 119.76 134.85 114.00 137.00
C 112.63 137.71 111.68 138.47 110.00 139.00
C 108.85 139.36 108.11 139.48 107.00 140.00
C 100.43 144.19 93.80 152.60 90.00 159.00
C 88.66 161.79 88.54 162.83 88.00 166.00
C 82.69 197.43 87.44 231.68 87.00 264.00 C 86.56 296.32 84.43 331.66 87.00 364.00
C 87.24 367.06 88.18 370.05 89.00 373.00
C 89.77 375.75 90.58 377.53 92.00 380.00
C 94.21 383.07 98.03 387.42 101.00 390.00
C 106.13 393.81 111.55 396.56 118.00 397.00
C 122.62 397.31 134.92 394.79 138.00 398.00
C 138.74 406.16 136.64 414.94 138.00 423.00
C 140.81 432.27 151.17 430.54 160.00 430.00 C 168.83 429.46 180.10 431.33 189.00 430.00
C 189.84 429.80 191.93 428.56 193.00 428.00
C 195.75 426.03 196.51 425.95 197.00 422.00
C 197.14 417.01 192.69 401.14 197.00 397.00
C 205.42 396.23 214.58 397.06 223.00 397.00 C 231.42 396.94 241.83 396.46 250.00 397.00 C 258.17 397.54 269.65 395.50 277.00 397.00 C 284.35 398.50 298.25 393.06 303.00 398.00
C 303.74 406.18 303.00 414.78 303.00 423.00
C 303.00 423.50 302.85 424.55 303.00 425.00
C 304.12 426.91 309.31 429.65 311.00 430.00
C 319.43 431.04 330.73 429.72 339.00 430.00 C 347.27 430.28 358.08 432.41 361.00 424.00
C 362.46 416.82 359.81 408.18 361.00 401.00 C 362.19 393.82 374.99 397.41 381.00 397.00
C 388.74 396.47 395.00 392.73 401.00 388.00
C 403.60 385.60 405.59 382.31 408.00 380.00
C 408.00 380.00 407.83 379.43 408.00 379.00
C 408.98 376.50 410.44 373.94 412.00 372.00
C 412.00 372.00 411.84 371.44 412.00 371.00
C 412.82 368.70 413.13 366.00 414.00 364.00
C 414.00 364.00 414.00 363.50 414.00 363.00
C 414.00 300.00 414.00 237.00 414.00 174.00
C 413.85 172.67 413.22 169.89 413.00 168.00
C 412.36 165.26 412.12 163.60 411.00 161.00
C 407.60 154.64 402.58 148.21 397.00 143.00
C 396.43 142.65 395.63 142.32 395.00 142.00
C 392.00 140.47 388.79 138.32 386.00 137.00
C 381.30 135.39 376.05 134.86 371.00 135.00 C 365.95 135.14 359.62 135.51 355.00 135.00 C 350.38 134.49 343.98 135.49 340.25 134.80 C 336.51 134.11 330.31 136.95 328.00 135.00
C 324.50 132.06 327.98 123.74 327.00 119.00 C 326.02 114.26 327.56 107.32 327.00 102.00 C 326.44 96.68 327.56 89.47 327.00 84.00
C 326.17 80.25 325.57 78.03 323.00 75.00
C 320.54 72.68 316.66 71.39 314.00 70.00
C 314.00 70.00 313.50 70.00 313.00 70.00
C 291.87 70.00 270.07 69.30 249.00 70.00 C 227.93 70.70 206.92 68.10 186.00 70.00
C 183.23 70.57 181.50 70.47 179.00 72.00
M 302.00 135.00 
C 297.55 138.12 286.71 133.84 281.00 135.00 C 275.29 136.16 268.31 134.37 262.00 135.00 C 255.69 135.63 247.43 135.06 241.00 135.00 C 234.57 134.94 225.07 135.69 219.00 135.00 C 212.93 134.31 202.87 136.90 198.00 135.00 C 193.13 133.10 195.79 120.41 196.00 116.00 C 196.21 111.59 193.39 99.22 196.33 95.33 C 199.27 91.44 211.62 94.82 217.00 94.00 C 222.38 93.18 231.89 94.11 238.00 94.00 C 244.11 93.89 252.76 93.48 259.00 94.00 C 265.24 94.52 274.14 92.50 280.00 94.00 C 285.86 95.50 297.29 90.70 302.00 94.00
C 304.92 96.04 303.14 110.16 303.00 114.00 C 302.86 117.84 305.07 132.85 302.00 135.00
M 218.00 198.00 
C 230.79 198.49 243.04 206.25 250.00 217.00
C 259.90 202.22 278.71 195.32 295.67 197.33 C 312.63 199.34 326.82 210.45 334.31 225.70 C 341.79 240.94 340.78 265.18 329.23 278.23 C 317.68 291.28 307.58 298.68 295.75 311.75 C 283.92 324.82 274.74 330.99 261.77 344.77 C 248.80 358.55 233.50 341.05 222.75 329.25 C 212.00 317.45 199.38 308.23 188.75 296.25 C 178.13 284.26 162.13 273.51 162.00 256.00
C 161.16 250.83 161.17 245.11 162.00 240.00
C 163.08 220.14 182.96 199.09 203.00 198.00
C 207.89 197.21 213.20 197.31 218.00 198.00 Z"/>
</g>
<g fill="#DBCBFE" fill-opacity="0.18" stroke="None">
<path d="
M 323.00 75.00 
C 320.63 72.20 317.88 70.08 314.00 70.00
C 316.66 71.39 320.54 72.68 323.00 75.00 Z"/>
</g>
<g fill="#DBC5FA" fill-opacity="0.22" stroke="None">
<path d="
M 173.00 79.00 
C 173.89 77.38 177.29 73.23 179.00 72.00
C 176.33 73.63 174.22 76.14 173.00 79.00 Z"/>
</g>
<g fill="#9178D5" fill-opacity="0.67" stroke="None">
<path d="
M 171.00 135.00 
C 174.65 132.44 170.95 122.65 172.00 118.00 C 173.05 113.35 171.38 105.17 172.00 100.00 C 172.62 94.83 171.44 88.28 172.00 83.00
C 168.12 99.37 172.74 117.63 171.00 135.00 Z"/>
</g>
<g fill="#9F83EF" fill-opacity="0.48" stroke="None">
<path d="
M 328.00 135.00 
C 326.45 118.35 330.51 99.83 327.00 84.00
C 327.56 89.47 326.44 96.68 327.00 102.00 C 327.56 107.32 326.02 114.26 327.00 119.00 C 327.98 123.74 324.50 132.06 328.00 135.00 Z"/>
</g>
<g fill="#000000" fill-opacity="0.00" stroke="None">
<path d="
M 302.00 135.00 
C 302.00 121.33 302.00 107.67 302.00 94.00
C 297.29 90.70 285.86 95.50 280.00 94.00 C 274.14 92.50 265.24 94.52 259.00 94.00 C 252.76 93.48 244.11 93.89 238.00 94.00 C 231.89 94.11 222.38 93.18 217.00 94.00 C 211.62 94.82 199.27 91.44 196.33 95.33 C 193.39 99.22 196.21 111.59 196.00 116.00 C 195.79 120.41 193.13 133.10 198.00 135.00 C 202.87 136.90 212.93 134.31 219.00 135.00 C 225.07 135.69 234.57 134.94 241.00 135.00 C 247.43 135.06 255.69 135.63 262.00 135.00 C 268.31 134.37 275.29 136.16 281.00 135.00 C 286.71 133.84 297.55 138.12 302.00 135.00 Z"/>
</g>
<g fill="#C9B0FE" fill-opacity="0.25" stroke="None">
<path d="
M 302.00 135.00 
C 305.07 132.85 302.86 117.84 303.00 114.00 C 303.14 110.16 304.92 96.04 302.00 94.00
C 302.00 107.67 302.00 121.33 302.00 135.00 Z"/>
</g>
<g fill="#C7AFF4" fill-opacity="0.25" stroke="None">
<path d="
M 110.00 139.00 
C 111.68 138.47 112.63 137.71 114.00 137.00
C 112.50 137.56 111.26 138.41 110.00 139.00 Z"/>
</g>
<g fill="#D5C4F7" fill-opacity="0.17" stroke="None">
<path d="
M 395.00 142.00 
C 392.27 139.55 389.55 138.22 386.00 137.00
C 388.79 138.32 392.00 140.47 395.00 142.00 Z"/>
</g>
<g fill="#C7B9F1" fill-opacity="0.27" stroke="None">
<path d="
M 90.00 159.00 
C 93.80 152.60 100.43 144.19 107.00 140.00
C 99.05 143.71 93.59 151.49 90.00 159.00 Z"/>
</g>
<g fill="#C6B6F3" fill-opacity="0.28" stroke="None">
<path d="
M 411.00 161.00 
C 407.91 153.83 403.94 147.32 397.00 143.00
C 402.58 148.21 407.60 154.64 411.00 161.00 Z"/>
</g>
<g fill="#A990F3" fill-opacity="0.38" stroke="None">
<path d="
M 86.00 364.00 
C 86.00 364.04 87.00 364.00 87.00 364.00
C 84.43 331.66 86.56 296.32 87.00 264.00 C 87.44 231.68 82.69 197.43 88.00 166.00
C 82.30 185.86 86.94 209.44 86.00 231.00 C 85.06 252.56 85.73 276.24 86.00 298.00 C 86.27 319.76 84.28 342.30 86.00 364.00 Z"/>
</g>
<g fill="#B19FEF" fill-opacity="0.40" stroke="None">
<path d="
M 414.00 174.00 
C 414.00 173.50 414.00 173.00 414.00 173.00
C 414.26 170.90 413.34 169.45 413.00 168.00
C 413.22 169.89 413.85 172.67 414.00 174.00 Z"/>
</g>
<g fill="#ECDBFF" fill-opacity="0.13" stroke="None">
<path d="
M 414.00 174.00 
C 414.00 237.00 414.00 300.00 414.00 363.00
C 419.28 355.84 413.28 341.38 415.00 332.00 C 416.72 322.62 414.22 310.08 415.00 300.00 C 415.78 289.92 414.65 278.37 415.00 268.00 C 415.35 257.63 414.84 246.47 415.00 236.00 C 415.16 225.53 414.92 214.45 415.00 204.00 C 415.08 193.55 415.40 182.68 414.00 173.00
C 414.00 173.00 414.00 173.50 414.00 174.00 Z"/>
</g>
<g fill="#C369EB" fill-opacity="1.00" stroke="None">
<path d="
M 203.00 198.00 
C 207.92 197.73 213.07 197.81 218.00 198.00
C 213.20 197.31 207.89 197.21 203.00 198.00 Z"/>
</g>
<g fill="#FC74C2" fill-opacity="1.00" stroke="None">
<path d="
M 218.00 198.00 
C 213.07 197.81 207.92 197.73 203.00 198.00
C 182.96 199.09 163.08 220.14 162.00 240.00
C 161.72 245.23 161.72 250.77 162.00 256.00
C 162.13 273.51 178.13 284.26 188.75 296.25 C 199.38 308.23 212.00 317.45 222.75 329.25 C 233.50 341.05 248.80 358.55 261.77 344.77 C 274.74 330.99 283.92 324.82 295.75 311.75 C 307.58 298.68 317.68 291.28 329.23 278.23 C 340.78 265.18 341.79 240.94 334.31 225.70 C 326.82 210.45 312.63 199.34 295.67 197.33 C 278.71 195.32 259.90 202.22 250.00 217.00
C 243.04 206.25 230.79 198.49 218.00 198.00 Z"/>
</g>
<g fill="#DD7FF3" fill-opacity="1.00" stroke="None">
<path d="
M 162.00 256.00 
C 161.72 250.77 161.72 245.23 162.00 240.00
C 161.17 245.11 161.16 250.83 162.00 256.00 Z"/>
</g>
<g fill="#E4D6FD" fill-opacity="0.18" stroke="None">
<path d="
M 89.00 373.00 
C 88.18 370.05 87.24 367.06 87.00 364.00
C 87.00 364.00 86.00 364.04 86.00 364.00
C 86.29 367.61 87.86 370.06 89.00 373.00 Z"/>
</g>
<g fill="#D0C2F7" fill-opacity="0.25" stroke="None">
<path d="
M 412.00 371.00 
C 414.10 369.39 414.18 366.63 414.00 364.00
C 413.13 366.00 412.82 368.70 412.00 371.00 Z"/>
</g>
<g fill="#D1BCF8" fill-opacity="0.29" stroke="None">
<path d="
M 408.00 379.00 
C 410.36 377.52 411.39 374.60 412.00 372.00
C 410.44 373.94 408.98 376.50 408.00 379.00 Z"/>
</g>
<g fill="#D1BBF7" fill-opacity="0.20" stroke="None">
<path d="
M 101.00 390.00 
C 98.03 387.42 94.21 383.07 92.00 380.00
C 94.25 383.92 97.24 387.21 101.00 390.00 Z"/>
</g>
<g fill="#E4CCFD" fill-opacity="0.12" stroke="None">
<path d="
M 401.00 388.00 
C 403.75 385.83 406.76 383.43 408.00 380.00
C 405.59 382.31 403.60 385.60 401.00 388.00 Z"/>
</g>
<g fill="#AC92F4" fill-opacity="0.39" stroke="None">
<path d="
M 137.00 398.00 
C 137.50 398.00 138.00 398.00 138.00 398.00
C 134.92 394.79 122.62 397.31 118.00 397.00
C 123.67 398.02 130.59 397.99 137.00 398.00 Z"/>
</g>
<g fill="#6144B4" fill-opacity="0.57" stroke="None">
<path d="
M 197.00 422.00 
C 197.96 414.27 197.00 405.80 197.00 398.00
C 197.00 397.50 197.00 397.00 197.00 397.00
C 192.69 401.14 197.14 417.01 197.00 422.00 Z"/>
</g>
<g fill="#9F84EC" fill-opacity="0.47" stroke="None">
<path d="
M 197.00 398.00 
C 231.37 401.11 267.47 397.94 302.00 398.00
C 302.50 398.00 303.00 398.00 303.00 398.00
C 298.25 393.06 284.35 398.50 277.00 397.00 C 269.65 395.50 258.17 397.54 250.00 397.00 C 241.83 396.46 231.42 396.94 223.00 397.00 C 214.58 397.06 205.42 396.23 197.00 397.00
C 197.00 397.00 197.00 397.50 197.00 398.00 Z"/>
</g>
<g fill="#A086ED" fill-opacity="0.38" stroke="None">
<path d="
M 361.00 424.00 
C 363.33 416.33 361.34 406.50 362.00 398.00
C 368.35 398.32 375.35 398.01 381.00 397.00
C 374.99 397.41 362.19 393.82 361.00 401.00 C 359.81 408.18 362.46 416.82 361.00 424.00 Z"/>
</g>
<g fill="#AF98E7" fill-opacity="0.23" stroke="None">
<path d="
M 138.00 423.00 
C 136.64 414.94 138.74 406.16 138.00 398.00
C 138.00 398.00 137.50 398.00 137.00 398.00
C 136.32 405.56 135.95 416.26 138.00 423.00 Z"/>
</g>
<g fill="#CCB4FF" fill-opacity="0.23" stroke="None">
<path d="
M 303.00 423.00 
C 303.00 414.78 303.74 406.18 303.00 398.00
C 303.00 398.00 302.50 398.00 302.00 398.00
C 301.37 404.99 300.44 416.98 303.00 423.00 Z"/>
</g>
<g fill="#D5C3F9" fill-opacity="0.21" stroke="None">
<path d="
M 311.00 430.00 
C 309.31 429.65 304.12 426.91 303.00 425.00
C 304.14 428.32 308.02 429.63 311.00 430.00 Z"/>
</g>
<g fill="#CAACFA" fill-opacity="0.33" stroke="None">
<path d="
M 189.00 430.00 
C 191.58 429.61 191.19 429.29 193.00 428.00
C 191.93 428.56 189.84 429.80 189.00 430.00 Z"/>
</g>
</svg>